<svg xmlns="http://www.w3.org/2000/svg" width="1897" height="902" viewBox="0 0 1897 902">
  <defs>
    <style>
      .cls-1 {
        fill: #8eb3c7;
      }

      .cls-1, .cls-10, .cls-11, .cls-12, .cls-13, .cls-14, .cls-15, .cls-16, .cls-17, .cls-18, .cls-19, .cls-2, .cls-20, .cls-21, .cls-22, .cls-23, .cls-24, .cls-25, .cls-26, .cls-3, .cls-4, .cls-5, .cls-6, .cls-7, .cls-8, .cls-9 {
        fill-rule: evenodd;
      }

      .cls-2 {
        fill: #83dbe6;
      }

      .cls-3 {
        fill: #91f3ff;
      }

      .cls-4 {
        fill: #57c6d4;
      }

      .cls-5 {
        fill: #c1cbcf;
      }

      .cls-6 {
        fill: #7c9cad;
      }

      .cls-7 {
        fill: #406987;
      }

      .cls-8 {
        fill: #477496;
      }

      .cls-9 {
        fill: #23394a;
      }

      .cls-10 {
        fill: #534f4e;
      }

      .cls-11 {
        fill: #363333;
      }

      .cls-12 {
        fill: #632a3d;
      }

      .cls-13 {
        fill: #4a1f2e;
      }

      .cls-14 {
        fill: #d8d8d8;
      }

      .cls-15 {
        fill: #f0f0f0;
      }

      .cls-16 {
        fill: #b0b3af;
      }

      .cls-17 {
        fill: #e7625e;
      }

      .cls-18 {
        fill: #d72936;
      }

      .cls-19 {
        fill: #e7f2f5;
      }

      .cls-20 {
        fill: #2b475c;
      }

      .cls-21 {
        fill: #1a3545;
      }

      .cls-22 {
        fill: #2c5a75;
      }

      .cls-23 {
        fill: #b17e50;
      }

      .cls-24 {
        fill: #a9957a;
      }

      .cls-25 {
        fill: #fec5a1;
      }

      .cls-26 {
        fill: #5a2618;
      }
    </style>
  </defs>
  <path id="Заливка_цветом_28" data-name="Заливка цветом 28" class="cls-1" d="M600,214v2h-2l-6,7V342h1q0.5,2,1,4h1q0.5,1,1,2h2q0.5,1.5,1,3l-6-1q-0.5-1-1-2h-2v-1c-1.479-1.35-1.376-.489-2-3-3.84-3.447-2-17.107-2-24V250c0-5.392-1.266-24.422,1-27a10.1,10.1,0,0,1,7-7v-1Z"/>
  <path id="Заливка_цветом_27" data-name="Заливка цветом 27" class="cls-2" d="M1414,328q-9.495,2.5-19,5v1h-4v1h-3v1h-3v1l-10,2v1h-4v1h-3v1h-3v1l-7,1v1l-10,2v1h-4v1l-10,2c-3.38,1.227-5.06,2.633-10,3q-1.005-46.995-2-94-0.495-18-1-36c1.33-1,2.67-2,4-3,1.45-2.242,1.9-6.408,2-10,3.93,1.2,1.27.239,3,3h1v2c0.67,0.333,1.33.667,2,1v2h1v2c0.67,0.333,1.33.667,2,1v2h1v-1q3.495-4,7-8c1.33-1,2.67-2,4-3v-2c0.67-.333,1.33-0.667,2-1v-1l3-1c0.35,0.325-.21,1.727,1,1l9-10c0.24-.865-1.5-1.675,0-4l3-2q4.005-5,8-10l3,1v1h7v1h5v1h4c6.22,2.239,13.15,5.285,19,8v1c-10.8-.138-17.46,3.78-22,10l-3,2c-0.33,1.333-.67,2.667-1,4h-1v2h-1q-0.495,6-1,12h1v3h1v3h1v4h1v3h1v3h1v4h1v3h1v3h1l3,13h1q1.005,5,2,10h1v4h1v3h1v3h1v4h1v3h1v3h1v3h1q1.005,5,2,10h1v4C1410.86,316.129,1413.49,321.273,1414,328ZM1306,183v2c-1.67.333-3.33,0.667-5,1-1.64,3.1-1.9,1.8-2,7h-1v5a92.835,92.835,0,0,0-4,18h1c1.26-1.909,1.01-1.659,4-2,0.19,5,1.99,5.259,3,9h2q-1.5,70.493-3,141h-1v1c-7.9.537-20.73,6.1-24,11-0.67,2-1.33,4-2,6h-1q-0.495,6.5-1,13h1c0.33,2,.67,4,1,6h1c0.33,1,.67,2,1,3h-30q3-104.99,6-210c3.96-.321,6.93-2.011,10-3h5C1278.27,187.162,1291.33,183.365,1306,183Zm107,198q-1.005,11.5-2,23h-71v-2Zm-75,23h-18v-1h1c2.2-3.363,10.96-4.226,15-6v1h1C1337.33,400,1337.67,402,1338,404Z"/>
  <path id="Заливка_цветом_26" data-name="Заливка цветом 26" class="cls-3" d="M1365,175c4.8,1.205,7.2,5.746,11,8-2.27,4.966-6.38,7.441-10,11-0.67,1-1.33,2-2,3h-2c-1.33,1.666-2.67,3.333-4,5-0.67.333-1.33,0.667-2,1v2l-3,2c-0.33,1.333-.67,2.667-1,4l-6,5c-3.57,3.684-4.5,9.169-11,10-0.33-1-.67-2-1-3-0.67-.333-1.33-0.667-2-1-0.33-1.333-.67-2.667-1-4-0.67-.333-1.33-0.667-2-1v-2h-1v-2h-1v-3h-1v-2h-1c-0.33-1-.67-2-1-3a22.477,22.477,0,0,0,7-4c0.33-.667.67-1.333,1-2h2c0.33-.667.67-1.333,1-2h2c0.67-1,1.33-2,2-3h2c0.67-1,1.33-2,2-3h2c0.67-1,1.33-2,2-3h2c0.33-.667.67-1.333,1-2h2c0.67-1,1.33-2,2-3h2c0.67-1,1.33-2,2-3C1360.64,178.13,1363.26,177.721,1365,175Zm-53,23-9,3c-0.98,1.972-3.15,4.07-4,6v3h-1c-1.98,5.9,2.47,9.033-6,10-0.06-12.9,5.2-22.656,6-35l9-2c0.84,1.135-.13.145,1,1Q1309.995,191,1312,198Zm24,206a67.624,67.624,0,0,0-5-20v-3h-1v-4h-1v-3h-1v-4h-1v-3h-1v-3c-0.67-.333-1.33-0.667-2-1-0.33-3.333-.67-6.667-1-10h1v-1l13-3v-1l10-2v-1h4v-1h3v-1h4v-1h3v-1h3v-1l10-2v-1l10-2v-1h4v-1h3v-1h4v-1h3v-1h3v-1h4v-1l6-1v-1c1.14-1.139.4,0,1-2h-1c-0.33-2-.67-4-1-6h-1v-4h-1v-3h-1v-3h-1q-1.005-5-2-10h-1c-0.33-2.333-.67-4.667-1-7h-1v-3h-1v-3h-1q-1.005-5-2-10h-1q-1.005-5-2-10h-1l-3-13h-1v-4h-1v-3h-1v-3h-1v-4h-1c-1.44-3.813-5.07-18.625-3-25h1v-3h1v-2h1v-2c0.67-.333,1.33-0.667,2-1v-2h1l3-4c2.37-1.686,5.15-1.866,7-4l16-1v1h2v1h2v1h3c0.33,0.667.67,1.333,1,2h2c0.67,1,1.33,2,2,3,1.33,1,2.67,2,4,3v2c0.67,0.333,1.33.667,2,1,1.4,2.256.98,5.291,2,8h1v4h1v3h1v3h1v4h1v3h1v3h1l3,13h1q1.005,5,2,10h1q1.005,5,2,10h1l3,13h1v4h1c0.33,2.333.67,4.667,1,7h1v3h1v3h1c0.33,2.333.67,4.667,1,7,1.71,4.359,4.27,9.647,6,14,0.33,2,.67,4,1,6,0.67,0.333,1.33.667,2,1,0.33,1,.67,2,1,3h1c0.33,1.666.67,3.333,1,5h1c0.83,2.116,2.02,11.712,1,15h-1v3h-1v3c-0.67.333-1.33,0.667-2,1v2c-0.67.333-1.33,0.667-2,1v2l-3,2v1h-2c-0.33.667-.67,1.333-1,2l-6,1v1h-3v1h-3v1h-4v1l-7,1v1h-3v1h-3v1h-4v1h-3v1h-3v1l-10,2c-0.33.667-.67,1.333-1,2h-2v1h-4v1h-3v1h-3v1l-10,2v1l-7,1v1l-10,2v1h-4v1l-10,2C1352.41,400.726,1346.5,403.825,1336,404Z"/>
  <path id="Заливка_цветом_25" data-name="Заливка цветом 25" class="cls-4" d="M1253,195q-2.505,84.991-5,170c-0.67-.333-1.33-0.667-2-1v1h-3v1h-10v1h-28v1l-92,2q-0.495-26.5-1-53l102-3c0.96-6.02,3.28-12.657,5-18v-5c2.4-7.359,4.51-16.676,7-24,0.33-2.666.67-5.334,1-8,3.49-10.183,5.49-22.677,9-33v-4h1q1.005-6,2-12C1241.05,204.43,1246.75,196.292,1253,195ZM568,351l-13-3v-1h-3v-1l-7-1v-1c-2.045-2.27-1.087-18.217-1-23,2.31-2.661,1-22.46,1-28q1-36,2-72c-2.762-.723-2.237-0.279-3-3-2.37-2.025-2.977-5.6-3-10,1.377-1.179,4.478-6.9,5-9l3-1v-1h3v-1c4.755-1.508,8.74,1.333,12,2,1.951,3.379,8.8,9.23,6,17h-1q-0.5,2-1,4l-4,3v9c2.166,7.8.992,20.484,1,30v9c2.259,8.076.983,21.192,1,31Q567,326,568,351Z"/>
  <path id="Заливка_цветом_24" data-name="Заливка цветом 24" class="cls-5" d="M961,200c-0.292,7.657-5.458,9.558-7,16h-3q-1-3-2-6h-1v-3h-1q-0.5-2-1-4h-1v-3h-1v-2h-1v-3h-1q-0.5-2-1-4h-1v-3h-1v-2h-1q-0.5-2.5-1-5h-1q-0.5-3-1-6c1.242-.678,1.361-1.566,2-2h2c2.573-1.818,1.667-3.816,6-5l19,27c-0.44,1.344-.2-0.169-1,1q0.5,1,1,2h-2v1h1C961.868,200.173,963.025,199.432,961,200Zm43-32c5.58,1.167,6.85,5.529,11,8q-2,5.5-4,11h-1c-0.33,1.666-.67,3.333-1,5h-1v2h-1v3h-1v2h-1v3h-1c-0.33,1.333-.67,2.667-1,4h-1v3c-1.26,2.805-2.417,2.489-3,7h-3v-1c-2.514-2.234-3.394-5.749-5-9h-1v-3q-2.5-4-5-8c2.692-1.762,3.18-4.308,5-7l2-1v-2l2-1v-2l3-2v-2l2-1v-2c0.667-.333,1.33-0.667,2-1,0.33-1,.67-2,1-3h1C1003.33,170,1003.67,169,1004,168ZM968,386l-13,2c-0.265-6.99-3.089-13.628-5-19q-0.5-4-1-8h-1v-4h-1c-0.639-2.046-.362-3.277-1-5h1c1.527-1.449,8.818-2.883,12-3v1h1Q964,368,968,386Z"/>
  <path id="Заливка_цветом_23" data-name="Заливка цветом 23" class="cls-6" d="M739,379H695v-1h-1a84.089,84.089,0,0,0-3-22v-9h-1v-8h-1v-7h-1v-3h-1q-1-11-2-22h-1v-8h-1v-7c-0.557-1.914-2.868-10.107-2-13h1q0.5-2.5,1-5l6-5h30v1l4,1,4,7v8c2.574,8.893,2.839,21.014,5,30q-0.5,2.5-1,5h1v7h1v8h1v7h1v7A113.186,113.186,0,0,1,739,379Z"/>
  <path id="Заливка_цветом_22" data-name="Заливка цветом 22" class="cls-1" d="M691,235c25.049-.452,37.107,5.415,47,20l2,1v2l2,1v2h1v2h1v3h1v3h1v4h1v7h1q-0.5,6.5-1,13h-1q-1,4.5-2,9c-2.364,5.332-9.141,14.222-14,17a45.5,45.5,0,0,0-2-13v-8c-1.861-6.391-2.692-15.26-4-22l-4-3v-1c-1.678-1.158-2.292.02-4-2H692v1l-4,1-5,7q0.5,8,1,16h1q2,17.5,4,35h-1c-2.594-2.842-4.575-1.479-8-3v-1h-2v-1h-2q-0.5-1-1-2h-2l-12-11v-2l-2-1q-0.5-1.5-1-3h-1c-2.425-3.95-7.51-23.669-5-32h1v-4h1q0.5-3,1-6h1q1-3,2-6h1v-2l3-2v-2l6-5q0.5-1,1-2h2l2-3h2v-1l6-2v-1h3v-1l7-1v-1Z"/>
  <path id="Заливка_цветом_21" data-name="Заливка цветом 21" class="cls-7" d="M645,190c1.223,6.827,1.012,16.638,1,25H596v1c-4.057,1.843-6.767,2.293-8,7-3.622,3.681-2,23.329-2,31,0,29.431-.447,61.2,1,89h1q0.5,1.5,1,3l2,1v1l4,1v1h7c10.1,2.871,31.558,1.032,44,1q0.5,27,1,54H614a8.392,8.392,0,0,1,2-4h1c1.68-2.6,4.8-13.461,3-19h-1v-3h-1v-2h-1v-2h-1a8.329,8.329,0,0,1-2-4c-3.446-.852-5.112-3.715-8-5h-3v-1h-3v-1h-3v-1h-4v-1l-13,1v1c-1.161.2-11.31-3.306-12-4h-1v-5c1.452-1.866.021-5.07,0-9V319c-2.187-7.783-.992-20.5-1-30q-0.5-21-1-42-0.5-13-1-26l4-3c1.762-2.735,1.984-7.489,2-12h2q2.5,5,5,10h1v2c1.135-.844.145,0.127,1-1h1v-3h1q0.5-2,1-4h1v-3h1q0.5-2,1-4h1v-3h1q0.5-2,1-4h1v-3h1q0.5-2,1-4h1l3-9c4.263,1.469,11.661-.537,17,1v1h7v1h6v1h4v1h4C636.825,186.384,640.562,189,645,190Zm-127-9,3,9h1q0.5,2.5,1,5h1v2h1v3h1q0.5,2,1,4h1v3h1q2,6,4,12h2c0.834-4.3,3.326-6.516,5-10h1c0.154,5.139,2.056,6.9,3,11l3,1q-1,44-2,88c0,10.709-3.418,26.582,0,36h-3v-1l-10-2v-1h-4v-1h-3v-1h-3v-1h-4v-1h-3v-1h-3v-1l-7-1v-1l-10-2v-1h-4c-4.737-1.711-10.043-4.311-16-5,0.432-6.177,3.23-13.1,5-18v-4h1v-4h1v-4h1v-3h1q6-24.5,12-49c1.543-4.531,3.474-10.545,5-15v-4h1q0.5-6.5,1-13h-1v-4h-1v-2h-1v-2l-2-1v-2h-1l-3-4h-2l-1-2-4-1v-1h-2v-1c-3.884-1.454-7.167.615-10-2h1c2.661-2.942,4.864-1.6,9-3A105.819,105.819,0,0,1,518,181Zm377,17a37.335,37.335,0,0,1-2,12v6c-1.5,4.972-2.51,12.023-4,17q-0.5,6.5-1,13c-3.658,11.753-4.407,27-8,39v6c-3.564,11.613-3.526,28.163-9,38-2.828,5.081-10.9,11.1-17,13-4.217,1.315-15.39-.461-17-2-7.464-1.741-19.675-16.432-16-29,5.755-19.68,6.077-43.47,12-63v-6h1v-6h1v-6h1v-5h1v-6h1v-6h1v-6h1v-5h1c1.192-3.931-.35-9.431,2-12v-1h3v1l16,2C873.024,195.339,884.621,196.1,895,198ZM476,378c6.1,0.165,12.264,3.3,17,5h4v1h3v1h3v1l10,2v1l10,2v1h4v1h3v1h3v1l7,1v1h4c3.381,1.227,5.059,2.631,10,3q1-2.5,2-5c6.772,2.368,14.668,3.137,18,9,1.135,0.844.145-.127,1,1H479v-1C480.528,402.181,477.316,381.305,476,378Z"/>
  <path id="Заливка_цветом_20" data-name="Заливка цветом 20" class="cls-8" d="M931,177h2V323h-3c-1.07-5.4-4.693-9.733-7-14q-0.5-2-1-4l-2-1v-2h-1v-2h-1v-2h-1v-2h-1v-2h-1v-2h-1v-2h-1q-0.5-2-1-4l-2-1c-1.172-1.963-.9-4.914-1-8h1v-3h1v-2h1v-2h1v-2h1v-3h1q0.5-2,1-4h1v-3h1q1-3,2-6c-3.764-2.416-5.5-8.169-8-12l-2-1v-2h-1v-5h1q0.5-2.5,1-5h1v-3h1v-2h1v-3h1v-2h1v-3h1v-2h1q0.5-2.5,1-5h1v-3h1v-2h1v-3h1v-2h1v-3h1v-2h1v-3h1v-2h1Zm85,0h3l3,10h1v3h1v2h1v3h1v2h1c0.33,1.666.67,3.333,1,5h1v3h1v2h1v3h1v2h1v3h1v2h1v3h1v2h1v3h1c0.33,1.666.67,3.333,1,5h1c1.01,2.184.84,3.888,1,7-3.77,2.43-5.49,8.161-8,12-0.67.333-1.33,0.667-2,1v2h-1v3c2.96,2.618,2.35,5.293,4,9h1c0.33,1.333.67,2.667,1,4h1v3h1v2c1.9,3.692,2.8,2.83,3,9-2.86,1.934-3.08,5.1-5,8-0.67.333-1.33,0.667-2,1v2h-1v2c-0.67.333-1.33,0.667-2,1v2c-0.67.333-1.33,0.667-2,1v2c-0.67.333-1.33,0.667-2,1v2h-1v2c-0.67.333-1.33,0.667-2,1v2c-0.67.333-1.33,0.667-2,1-0.33,1.333-.67,2.667-1,4-0.67.333-1.33,0.667-2,1a19.892,19.892,0,0,0-3,7h-3q0.5-16.5,1-33c0-8.324-.86-19.346,1-26Q1015.5,220,1016,177ZM570,350c0.039,4.607-.441,6.987-2,10h-1v2h-1v4h-1v3h-1v3h-1v4h-1v3h-1q-0.5,3.5-1,7h-1v4h-1v3h-1q0.5,2,1,4h-1q-0.5,3-1,6l-13-3v-1h-4v-1h-3v-1h-3v-1l-7-1v-1h-4v-1h-3v-1h-3v-1l-10-2v-1h-4v-1h-3v-1h-3v-1l-10-2v-1l-7-1v-1h-2l-1-2-10-2v-1h-3v-1l-10-2v-1h-4v-1h-3v-1h-3v-1h-3v-1h-4v-1h-4v-1h-2v-1h-2l-4-5-2-1v-2l-2-1v-2h-1v-3h-1v-4h-1c-1.5-5.078,2.648-18.444,4-22h1q2-9.5,4-19h1v-2h1v-3h1c-2.419,6.61,8-42.261,19-71v-4h1v-4h1v-4h1v-3h1v-4h1v-4h1v-2h1v-2l2-1v-2l4-3v-1h2l1-2h2v-1h2v-1h2v-1c1.907-.818,11.9-2.006,15-1,2.334,0.758,4.848,2.335,8,3l6,7,2,1v2h1l1,4h1v4h1c2.1,7.113-2.539,17.9-4,22v4h-1v4h-1v4h-1q-1.5,7.5-3,15c-5.392,15.022-8.639,32.965-14,48v4l-4,12h2v1l10,2v1h3v1h4v1h3v1h3v1h4v1h3v1h3v1l7,1v1l10,2v1h4v1h3v1h3v1h4q0.5,1,1,2h2v1h4v1h3v1h4v1C561.258,349.607,564.421,349.856,570,350Zm94-135H644V191h1c1.726,1.991,2.327.845,4,2l3,4,2,1v2l3,2v2l2,1v2l2,1A19.55,19.55,0,0,1,664,215Zm444,111h-9v-1l-4-1v-1h-3v-1c-4.19-1.407-23.25,0-27,2-0.33.667-.67,1.333-1,2h-2c-0.33.667-.67,1.333-1,2-1.33,1-2.67,2-4,3v2h-1c-1.16,2.033,0,2.244-2,4-0.58,7.925-1.27,11.775,2,18v2l3,2v2l3,1c0.67,1,1.33,2,2,3h2v2l-15,3c-0.33.667-.67,1.333-1,2l-7,1v1l-8,1v1h-4v1h-4v1h-4v1h-4v1h-3v1h-8v1h-4v1h-3v1h-4v1h-4v1h-4v1l-8,1a51.409,51.409,0,0,1-11,3v-1h-1q-6-25-12-50l7-1q1.5-60.995,3-122l-3-2v-2h-1c-1.583-2.968-1.936-6.546-2-11h1v-3l2-1v-2l2-1v-1h2q0.5-1,1-2l10-1v1l5,1c2.959,5.455,5.888,7.251,6,16h-1v3l-2,1v2l-3,2q0.5,14.5,1,29,1,43.5,2,87h1c2.235-2.032,4.782-.913,8-2v-1h4v-1h3v-1h4v-1h4v-1l4-1v-1l20-4c13.44-4.525,29.13-7.987,43-12,3.39-.982,9.12.4,11,1h4C1099.02,311.377,1107.12,318.393,1108,326Zm217,37-10,2v1l-7-1v-1h-8q1.995-69.993,4-140c-1.33-1-2.67-2-4-3-1.77-2.745-1.97-7.48-2-12h1v-3c0.67-.333,1.33-0.667,2-1v-2c0.67-.333,1.33-0.667,2-1v-1h2c0.33-.667.67-1.333,1-2l9-1c1.25,1.278,4.87,2.562,7,3,2.89,5.337,4.96,7.237,5,16-2.02,1.718-.84,2.293-2,4-1.33,1-2.67,2-4,3q0.495,16.5,1,33,0.495,16,1,32c0,8.026-.79,18.631,1,25v15C1324,341.792,1323.3,353.894,1325,363ZM773,215H743v-1c3.192-2.179,4.777-6.76,7-10l2-1q0.5-1.5,1-3h3C759.513,205.651,771.3,208.78,773,215Zm847,188c0.15-5.925,2.5-9.6,4-14q1.005-6,2-12a238.86,238.86,0,0,0,7-26h1c2.29,2.017,4.76.893,8,2v1h4v1h4v1h4v1h3v1h4v1h4v1h4v1l8,1v1h4v1l5-1v1h2v1q14.505,3.5,29,7-3.495-33.5-7-67c-1.13-4.016-3.89-23.129-2-29,3.48-10.814,16.27-23.078,32-18h4v1l4,1v1h2l3,4c1.9,1.894,4.83,3.443,6,6v3h1v3h1v7h1v9h1v9h1v9c3,10.763,1.99,25.242,5,36v9h1v9h1v9h1v9h1v9h1v9h1c1.46,5.271-1.31,17.379-3,20l-3,2v2l-6,5h-2v1h-2v1h-2v1h-3v1c-6.17,1.958-23.14-1.558-27-3v-1h-4v-1h-4v-1h-4v-1h-4v-1h-4v-1h-4v-1h-4v-1h-4v-1h-3v-1c-0.67.333-1.33,0.667-2,1-0.33-.667-0.67-1.333-1-2h-4v-1h-3v-1h-4v-1h-4v-1c-2.47-.725-3.72.988-5,1v-1c-1.98-1.729-.85-2.329-2-4q-3.495-3-7-6c-6.57-2.969-22.22-.533-31-1Z"/>
  <path id="Заливка_цветом_19" data-name="Заливка цветом 19" class="cls-9" d="M554,455h56a46.982,46.982,0,0,1-2,11v8h-1v8h-1v8h-1c-1.368,4.726,1.15,7.883-2,11-1.906-1.72-7.487-1-11-1-9.341,0-25.8-1.714-33,1Q556.5,478,554,455Zm368,0h54c0.093,7.1-.431,14.481-2,20v9h-1v10h-1v2h-1c-1.906-1.72-7.487-1-11-1-9.341,0-25.8-1.714-33,1Q924.5,475.5,922,455Zm403,313h-2c0.17-9.836-2.21-18-6-24-0.67-.333-1.33-0.667-2-1v-2h-1c-0.93-1.37-.67-1.765-1-4h1c1.76,1.972,2.21.832,4,2,0.33,0.667.67,1.333,1,2h2c0.33,1,.67,2,1,3l3,2v2c1.51,1.456,3.46,11.972,2,16h-1C1325.67,765.333,1325.33,766.667,1325,768Z"/>
  <path id="Заливка_цветом_18" data-name="Заливка цветом 18" class="cls-10" d="M1196,455h68c1.2,6.477,1.84,18.6,0,25v15h-1v8h-1v14h-1v15h-1v20h-1v11c-0.23,1.395-.61-0.359-1,1v13h-1v15h-1q-0.495,12-1,24c0.05,2.009,1.06,3.376,1,4h-1v14h-1q-0.495,10-1,20v10h-1v15h-1v14c-2.05,7.161-2.22,18.891-3,27l-29-1v-1l-41-1q0.495-16.5,1-33h1V674q0.495-10,1-20h1V639h1V624h1v-9h1v-9h1V591h1q0.495-12,1-24c-0.04-2.024-1.06-3.363-1-4h1v-7h1q1.005-20,2-40h1q0.495-10,1-20V486h1V471h1Q1195.495,463,1196,455Zm121,0h63q1.995,6,4,12c2.11,7.06-2.55,21.544-4,26-0.33,3-.67,6-1,9-0.67.333-1.33,0.667-2,1-0.33,3-.67,6-1,9h-1c-0.33,3-.67,6-1,9h-1v4h-1c-0.33,3-.67,6-1,9h-1v5h-1c0.33,1,.67,2,1,3h-1c-0.33,3-.67,6-1,9h-1c-0.33,3-.67,6-1,9h-1v4h-1v3h-1c-0.33,3-.67,6-1,9h-1c-0.33,3-.67,6-1,9h-1v5h-1v4h-1v5h-1c-0.33,3-.67,6-1,9h-1v5h-1v4h-1c-1.24,3.826-.38,7.382,0,10h-1v3h-1v4h-1c-0.33,3-.67,6-1,9h-1v5h-1c-0.33,3-.67,6-1,9h-1c-0.33,3-.67,6-1,9h-1v5h-1v4h-1v5h-1v4h-1v2h-1q-4.005,21-8,42c-5.64-.372-10.4-2.552-15-4l-10-1c-7.24-2.294-16.67-3.7-24-6h-5v-1h-5v-1c-3.62-1.138-6.59.314-9-2h-1v-6c1.92-2.291.92-5.775,2-9h1v-5h1v-4h1v-7c3.43-11.27,5.41-24.889,9-36v-5h1v-4h1v-5h1v-4h1v-5h1v-2h1v-3h1v-5h1c0.33-3,.67-6,1-9h1v-4h1c0.33-3,.67-6,1-9h1c0.33-3,.67-6,1-9h1v-5h1v-4h1v-5h1v-6h1l3-18h1v-4h1v-2h1c0.33-3,.67-6,1-9h1v-5h1c0.33-3,.67-6,1-9h1v-4h1q0.495-6.5,1-13h1c0.33-3,.67-6,1-9h1v-5h1c0.33-3,.67-6,1-9h1v-4h1v-5Q1315,460.5,1317,455Zm267,44V750l-18-1v-1h-12v-1h-11v-1h-11v-1c-0.67.333-1.33,0.667-2,1v-1l-14-1c-0.1-7.461.35-16.184,2-22V711h1V700h1V689h1V678h1V666h1V655h1V644h1V633h1V622h1V611h1V600h1V589h1V577h1V566h1V555h1V544h1V533h1v-5h1v-5h1v-3h1v-3c0.67-.333,1.33-0.667,2-1,0.33-1.333.67-2.667,1-4,1.67-1.333,3.33-2.667,5-4l3-4h2c0.33-.667.67-1.333,1-2l4-1v-1l6-1v-1C1567.88,496.154,1579.03,498.708,1584,499Zm29,72V499l197-1c0.84,1.135-.13.145,1,1q0.495,8,1,16h1c0.9,3.239-.51,8.28-1,10q-0.495,6-1,12h-1v2h-1v3h-1v2h-1c-0.67,2-1.33,4-2,6-2.48,3.91-6.74,6.8-10,10-0.67,1-1.33,2-2,3h-2c-0.33.667-.67,1.333-1,2-12.54,7.933-35.63,6-56,6H1613ZM969,758l-30,2v1l-17,1v1h-8v1h-9c-5.642,1.62-14.469,2.613-21,3-0.323-23.171,5.1-38.108,20-46v-1h2v-1h3v-1h6v-1h8v-1l20,1v1l4,1v1h2l2,3h3l3,4h1v2l2,1v2l2,1C965.311,738.262,969,749.658,969,758Zm277-11h2q1.995,7,4,14-0.495,7-1,14l-25-1v-1h-14v-1h-13v-1h-14v-1h-14v-1h-4c0.05-18.754,12.6-36.747,26-42,2.41-.946,13.45-2.021,17-1v1h13C1231.94,729.747,1244.07,737.729,1246,747Zm319,8h10v1l4,1q2.505,4,5,8v29l-3,1v1h-2v1l-7,1v1h-4v1h-4v1h-4v1l-8,1v1h-3v1h-4v1h-4v1h-4v1l-8,1v1l-7,1v1l-8,1v1l-12-1c-1.54-2.343-2.92-1.611-4-3v-2c-0.67-.333-1.33-0.667-2-1v-2h-1v-2h-1c-3-6.863-1.42-15.377-1-21,2.47-1.535.62-1.146,2-3,0.67-.333,1.33-0.667,2-1,1.33-1.667,2.67-3.334,4-5h2c0.33-.667.67-1.333,1-2l4-1v-1l10-1v-1h4v-1h4v-1h2v-1c0.67,0.333,1.33.667,2,1v-1h4v-1h4v-1h4v-1h4v-1h3v-1h4v-1h4v-1C1560.18,755.9,1562.8,757.057,1565,755Z"/>
  <path id="Заливка_цветом_17" data-name="Заливка цветом 17" class="cls-11" d="M1262,455h57c-0.34,3.778-2.03,5.316-3,8q-1.005,6.5-2,13c-2.41,7.469-5.6,18-6,27h-47l3-39h-1C1262.67,461,1262.33,458,1262,455Zm115,0h28c0.84,1.135-.13.145,1,1,0.3,4.765,2.77,12.2,1,18h-1c-0.33,2.333-.67,4.667-1,7h-1c-0.67,2-1.33,4-2,6-4.31,6.516-14.32,14.881-25,15q1.995-11.5,4-23h1V467C1380.73,462.769,1377.97,459.444,1377,455Zm141,288c-4.66.043-6.92-.485-10-2v-1h-3c-0.33-.667-0.67-1.333-1-2h-2v-1h-2v-1h-3v-1h-2v-1l-4-1v-1h-3v-1l-4-1v-1h-3v-1l-4-1v-1h-3v-1l-4-1v-1l-9-2c-2.8-1.24-2.49-2.407-7-3-0.15-6.654,1-6.174,3-10v-2h1v-3h1c0.33-1.333.67-2.667,1-4h1v-3h1c0.33-1.333.67-2.667,1-4h1v-3h1c0.33-1.333.67-2.667,1-4h1v-3h1c0.33-1.333.67-2.667,1-4h1v-3h1c0.33-1.333.67-2.667,1-4h1v-2h1v-3h1c0.33-1.333.67-2.667,1-4h1v-3h1c0.33-1.333.67-2.667,1-4h1v-3h1c0.33-1.333.67-2.667,1-4h1v-3h1v-2h1v-2l3-2v-3h1c0.33-1.333.67-2.667,1-4h1v-3h1c0.33-1.333.67-2.667,1-4h1v-2h1v-3h1c0.33-1.333.67-2.667,1-4h1v-3h1c0.33-1.333.67-2.667,1-4h1v-3h1c0.33-1.333.67-2.667,1-4h1v-3h1c0.33-1.333.67-2.667,1-4h1v-2h1v-3h1c0.33-1.333.67-2.667,1-4h1v-3h1c0.33-1.333.67-2.667,1-4h1v-3h1c0.33-1.333.67-2.667,1-4h1v-3h1c0.33-1.333.67-2.667,1-4h1v-2h1v-3h1c0.33-1.333.67-2.667,1-4h1v-3h1c0.33-1.333.67-2.667,1-4h1v-3h1c0.33-1.333.67-2.667,1-4h1v-3h1v-2h1l3-8h1v14c-2.08,2.457.07,7.241-1,11h-1v11h-1v11h-1v11h-1v11h-1v11h-1v11h-1v12h-1v11h-1v11h-1v11h-1v11h-1v11h-1v11h-1v11h-1Q1519,726,1518,743Zm-498,23-13-1v-1l-18-1v-1h-9v-1h-9c-5.472-1.564-11.889-1.912-19-2v-2l15-1v-1h-1q-1-6-2-12h-1q-0.5-2-1-4h-1q-0.5-2-1-4l-2-1v-2l-2-1q-0.5-1.5-1-3h-1c-1.392-1.77-1.572-1.992-2-5,4.853-2.714,8.989-6.212,15-8l20,1v1l11,1C1014.43,725.176,1022.27,743.275,1020,766Zm303,16c-4.17-.031-6.33-1.147-9-2h-5v-1h-4v-1h-4v-1h-5v-1h-4v-1h-4v-1l-18-3v-1h-4v-1h-5v-1h-4v-1l-6-1v1h-1c-0.25-8.51-4.12-13.548-5-21,0.67,0.333,1.33.667,2,1q2.505-4,5-8l6-5c0.33-.667.67-1.333,1-2h2c0.33-.667.67-1.333,1-2l4-1v-1h3v-1h4c6.98-2.2,12.44.217,18,2h5v1h4v1h3v1h3c0.33,0.667.67,1.333,1,2h2c0.33,0.667.67,1.333,1,2h2c0.67,1,1.33,2,2,3h1v2l3,2c0.33,1.333.67,2.667,1,4C1324.63,757.617,1325.56,768.26,1323,782Zm188-13h2v2c-8.27,1.423-16.39,7.924-18,16-1.67-.333-3.33-0.667-5-1v-1h-15v-1h-15v-1h-16v-1h-8c-8.26-.068-14.94-1.724-18-7h-1c-0.33-2.333-.67-4.667-1-7h-1c-1.39-4.618.84-15.782,3-19,1.33-1,2.67-2,4-3,0.33-.667.67-1.333,1-2,3.67-2.462,19.01-7.291,27-5v1h11v1h15v1h16v1h9v1c1.67,0.333,3.33.667,5,1l3,4h1C1512.36,753.26,1511.04,763.023,1511,769ZM436,805c-3.089.852-5.194,3.113-8,4-4.055,1.281-15.313-1.23-18-2h-9c-10.412-3.011-24.649-2.032-35-5h-9v-1h-5v-1h-3l-1-2c-2.614-1.825-1.828,1.078-3-3-4.91-4.745-.669-29.038,2-33l6-5,40,4v1l14-1v1h9v1h5v1h3v1h3c2.463,1.129,5.122,4.145,7,6l4,3c1.752,2.632,4.718,13.386,3,19h-1q-0.5,3.5-1,7h-1v2h-1Z"/>
  <path id="Заливка_цветом_16" data-name="Заливка цветом 16" class="cls-12" d="M295,503v72H126v-1h-4v-1h-3v-1l-4-1v-1h-2l-2-3h-2v-1l-4-3v-2l-5-4v-3H99v-2H98v-3H97V539c0-6.994.353-13.665,3-18l2-1,1-4,5-4,2-3c13.014-9.185,35.921-7,58-7Zm29,0,14,1v1h2v1h3v1l3,1,1,2h2l3,4,2,1v2l2,1,1,4h1v2h1v2h1q0.5,4,1,8h1q1,6.5,2,13c4.961,14.714,7.079,32.343,12,47q0.5,4.5,1,9h1v4h1v4h1v4h1q1,6.5,2,13h1v5c1.658,5.18,3.76,10.21,4,17h2c0.208,7.712,3.906,18.487,6,25v5h1v4h1v4h1v4h1q0.5,4.5,1,9h1v4h1v4h1q0.5,4.5,1,9h1v4c1.8,5.27,3.68,11.206,4,18-3.382.549-7.2,2.184-10,3-2.473.72-3.725-1.006-5-1v1h-4v1l-9,1v1h-4v1h-4v1l-18,3v1l-4,1v1l-11,2c-0.844-1.135.127-.145-1-1-0.684-8-3.814-17.141-6-24q-0.5-4.5-1-9h-1v-4h-1v-4h-1q-0.5-4.5-1-9h-1v-4h-1q-1-6.5-2-13h-1V503ZM647,772l-20-3h-8v-1h-9v-1h-7v-1h-9c-10.85-3.12-21.182-1.948-32-4,0.7-9.153,4.943-20.928,9-27l3-2v-2l3-2v-1c5.63-.523,4.487-4.571,8-3v-1c5.937-3.788,5.323-2.035,6-3l11-1v1h9v1h8l11,4q0.5,1,1,2h2q0.5,1,1,2l4,3v2l2,1q0.5,1.5,1,3h1q0.5,2.5,1,5h1v2h1C647.456,752.337,647.143,763.212,647,772Z"/>
  <path id="Заливка_цветом_15" data-name="Заливка цветом 15" class="cls-13" d="M199,499v5H148c-9.215,0-20.47-.861-27,2v1l-6,2-1,2h-2l-5,6-2,1v2l-2,1-1,4h-1v3h-1v3H99v5H98v5h1v6h1q1,5,2,10h-2v-1l-2-1v-2l-3-2v-2l-2-1v-2H92v-2H91l-1-4H89v-3H88v-3H87v-4c-3.643-11.473-.307-32.542,2-45h1c2.8,2.361,8.793-.193,13,1v1h11v1h10ZM580,728c-0.672,2.593-1.574,3.264-3,5h-1q-0.5,1.5-1,3l-2,1v2c-4.186,6.247-7.742,11.573-8,22h7v3l-44,5c-4.325.153-14.028,2.361-16,1-2.192-2.4-1.1-11.713-1-16h1v-5h1q0.5-3,1-6h1q1-3,2-6h1v-2l3-2v-2l8-6h2v-1h2v-1h3v-1h5v-1h9v-1h15v1h4v1h2v1c2.942-.731,4.5.752,5,2v1A8.211,8.211,0,0,0,580,728Z"/>
  <path id="Заливка_цветом_14" data-name="Заливка цветом 14" class="cls-14" d="M207,369c-0.4-5.96-2.43-13.856-4-19v-6h-1v-6h-1v-5h-1v-6c-3.077-9.99-3.962-23.028-7-33v-6c-2.727-8.992-3.118-20.132-8-27l-4-3v-1h-2q-0.5-1-1-2c-3.414-2.139-15.02-4.884-20-3v1l-4,1v1l-4,1-2,3-4,3c-6.631,9.923-3.347,26.856,0,38v6c1.377,4.486,2.633,11.51,4,16v6h1v5h1v6c4.683,15.491,5.316,34.572,10,50q0.5,6,1,12l4,11,6,5,2,3c10.967,7.308,22.922.844,36,0v1h-1q-1,11-2,22h-1v10h-1v9h-1v10c-2.1,7.432-2.936,18.892-3,28h-1c-2.743-2.391-6.813-.755-11-2v-1h-6v-1h-6v-1h-7v-1h-7v-1h-7v-1h-7v-1h-8v-1h-8v-1h-9c-9.548-2.721-22.17-2.889-34-3-0.15-9.444.809-20.353,3-28V448h1v-9h1V429h1v-9h1V410h1v-9h1v-9h1V382c3.24-11.284,1.759-26.67,5-38v-9h1v-9h1q1.5-18.5,3-37c2.736-9.232,5.978-18.01,11-25l6-5,4-5h2q0.5-1,1-2h2q1-1.5,2-3l4-1v-1h3v-1h3v-1h3v-1h5v-1c4.3-1.247,20.046-.179,23,1v1l4,1v1l4,1,3,4h2q0.5,1,1,2l4,3v2l3,2v2l2,1,1,3h1q0.5,2,1,4h1v2h1l2,6h1v3h1v2h1q1,5,2,10h1v3h1v4h1v5h1v7h1v5h1v1h-1v11h-1v10h-1v9h-1v10h-1c-1.035,3.656,1.137,6.475,0,8v1Z"/>
  <path id="Заливка_цветом_13" data-name="Заливка цветом 13" class="cls-15" d="M304,350a37.61,37.61,0,0,0,2,8v6h1v5h1v6c2.471,8.124,4.77,18.046,5,28h-5v1H269c-6.578,0-16.064-1.25-21,1-3.881,1.769-7.288,6.818-9,11l-31,5c-11.54,4.249-27.421,7.465-38,0l-2-3-4-3v-2l-2-1-3-9v-7h-1v-6h-1v-5h-1v-6h-1v-5h-1v-6h-1v-6h-1v-5h-1v-6c-6.264-20.862-6.992-45.937-13-67v-6c-0.062-11.534,2.188-15.418,8-21q0.5-1,1-2h2q0.5-1,1-2c4.379-2.767,19.431-4.838,26-2v1l4,1q0.5,1,1,2h2v1l4,3v2l2,1v2h1q0.5,3,1,6h1v6h1v5h1v6c4.6,15.557,5.357,34.484,10,50v6h1v5h1v6h1c1.228,4.16-.421,8.31,2,11v1h3v-1l6,1v-1h6v-1h5v-1h6v-1h5v-1h6v-1h6v-1h5v-1h6v-1l11-1C283.078,353.279,294.306,351.864,304,350Z"/>
  <path id="Заливка_цветом_12" data-name="Заливка цветом 12" class="cls-16" d="M350,208c4.026,0.479,4.544,2.112,7,4v1l2-1v2l4,2,8,9h2v1l4,3,5,6h2c3.119,2.31,1.613,5.574,7,7-1.057,4.067-3.168,3.466-5,6v2l-6,5-3,4-2,1v2l-8,7v1l-2,1v2l-8,7-2,3h-1v2l-10,9v2l-5,4-4,5-2,1v2l-10,9v2l-10,9-1,3-6,5-1,2h-2l-1,2-4,1v1h-3v1c-6.395,2.031-20.467-1.443-24-3v-1h-2v-1h-3v-1h-2v-1l-6-1v-1h-2v-1h-3v-1h-2v-1l-5-1v-1l-6-1v-1h-2v-1h-3v-1h-2v-1l-5-1v-1l-6-1v-1h-2v-1l-4,1c0.254-16.571-6.194-33.153-12-44l-2-6h-1l-1-3-2-1v-2l-2-1v-2l-4-3v-7l3,1v1l5,1v1h3v1h2v1l5,1v1l6,1v1h2v1h3v1h2v1h3v1h2v1l6,1v1h2v1h3v1h2v1l5,1v1l6,1v1h2v1h3v1h2v1l6,1c4.959,2.171,9.2,5.465,16,6l12-14,4-3v-2l10-9v-2l9-8v-1l2-1v-2l11-10v-2l10-9v-2h1l3-4C345.613,213.378,348.852,212.166,350,208Z"/>
  <path id="Заливка_цветом_11" data-name="Заливка цветом 11" class="cls-17" d="M946,168c-3.252.679-4.987,2.133-7,4q-0.5,1-1,2h-2q-0.5,1-1,2l-22,1v1l-8,1v1l-4,1v1l-6,1c-2.818,1.291-4.119,3.953-8,5q0.5-2.5,1-5l3-2v-2l2-1v-2h1q0.5-4,1-8h1v-6h1c0.906-3.222-1.1-12.307-2-14h-1v-2l-5-4-2-3h-2v-1l-4-1v-1c-3.9-1.407-9.321,1.308-12-1h1c2.035-1.819,8.307-1,12-1h30c1.817,0,11-1,11-1v1c2.717,1.765,3.106,4.369,5,7l4,3q0.5,1,1,2h2l3,4,8,4v14Zm75-35c17.37,2.922,51.17-3.39,63,5l3,4h1v2c0.67,0.333,1.33.667,2,1,2.83,4.511,3.02,10.712,3,18v7h-1q-0.495,12.5-1,25v13c-1.38,4.862.55,13.521-1,19h-1q-0.495,16.5-1,33h-2l-3-9h-1c-0.33-2-1.67-3-2-5-0.33,0,.33-1,0-1,0-.667-1-0.333-1-1-0.33,0,.33-1,0-1,0-1-1-2-1-3h0c0-.667-1-0.333-1-1-0.33,0,.33-1,0-1-0.33-2-1.67-3-2-5-0.33,0,.33-1,0-1v-2h-1v-2.39c0-.2-1,0.593-1,0.39-0.33,0,.33-1,0-1v-2h-1c0-1-1-1-1-2h-1c0-.667,1-2.333,1-3h-1c-0.33-2-1.67-3-2-5-0.07,0,1.37-1.912.78-1s-0.52,0-.78,0c-0.33-1.667-1.67-2.334-2-4-0.33,0,.33-1,0-1v-2h-1v-3h-1v-2h-1v-2l-3-2c0-.667-1-0.333-1-1-1-.333-1-1.667-2-2-0.67-1-1.33-2-2-3h-2c-1.67-2-3.33-3-5-5-8.42-5.939-19.8-10.167-34-10-1.33-1.667-2.67-4.334-4-6h-2c-0.67-1-1.33-2-2-3h-1V150C1009.93,147.4,1019.53,138.713,1021,133ZM527,155v18c-3.842.985-6.4,3.691-9,6q-0.5,1-1,2c-6.333.333-9.667,1.667-16,2,0,0.333-3-.333-3,0-3.333.333-4.667,1.667-8,2,0,0.333-2,.667-2,1h-2a2.02,2.02,0,0,1-2,1c-0.929.206-.071-0.206-1,0-1.128.251-2.872,0.749-4,1-0.943.21-1.057,0.79-2,1,0,0.333-2,.667-2,1-1.667.333-1.334-.333-3,0,0,0.333-2,.667-2,1-1.333.333-1.667,0.667-3,1,0,0.333-1,.667-1,1-1.333.333-1.667,1.667-3,2-0.333.667-2.178,1.685-2,1-0.028.023,0.183,1.292,0,1s-1.362,1.689-3,3c-2,5.666-4,8.334-6,14,0,1.333-2,5.667-2,7h-1v4h-1c-0.333,2.333.333,3.667,0,6-0.333,0-.667,1-1,1,0,1.333-1,2.667-1,4-0.333,0,.333,1,0,1,0,1.333-1,1.667-1,3h0c0,1-1,2-1,3-0.333,0,.333,1,0,1-0.667,4-2.333,7-3,11-1.809,5.152-4.4,11.574-5,18h-2q-1-14.5-2-29h-1V233h-1V222h-1V212h-1V201h-1V190h-1V180h-1v-8h1v-5h1l2-6,5-4,1-2c5.108-3.434,12.413-3,21-3h60l6-1v1C524.015,153.308,524.246,154.252,527,155Zm58,18V159l8-4c2.9-2.031.466-3.223,6-4,2.2,1.9,9.1,1,13,1h35v1h3v1h2v1l4,1q0.5,1,1,2h2v1l4,3v2l2,1v2h1v2h1v2h1v3h1v8h1v10h1v11h1c1.109,3.959-.063,9.076,1,12h-8c-0.665-1.216-1.6-1.394-2-2v-2l-2-1v-2l-2-1v-2l-2-1v-2l-3-2v-2l-2-1-3-4-4-1-2-3-18-6-18-2H596q-0.5-1-1-2c-0.238-.206-2-2-2-2h-2C588.1,174.937,590.511,173.764,585,173Zm723-12v22c-15.84.08-29.82,3.946-42,8-2.88.32-4.12,0.68-7,1-0.12.013-.88,0.987-1,1,0,0.333-1-.333-1,0-1,0-1,1-2,1,0,0.333-1-.333-1,0-0.62,0-1.63-.506-1.87,0s-0.09,0-.13,0c-0.33.667-.67,1.333-1,2-0.67,0-.33,1-1,1-0.02.037-.91-1.4-1.06-0.889A15.326,15.326,0,0,1,1248,198c-1.67,1.333-3.33,2.667-5,4v2c-0.67.333-1.33,0.667-2,1v3h-1v2h-1c-0.33,3-.67,6-1,9h-1v4h-1v4h-1v4h-1v4h-1v4c-3.33,9.925-5.68,22.072-9,32-0.33,3-.67,6-1,9h-1q-4.005,17-8,34l-3,1c-0.08-7.49.35-16.153,2-22V282h1V272h1V261h1V251h1V240h1V229h1V219h1V208h1V197h1V187h1v-9h1v-4c1.96-5.421,5.31-8.376,9-12,0.67-1,1.33-2,2-3,11.55-8.127,43.11-4.547,61-6C1298.14,156.744,1303.2,160,1308,161Zm149,124h-2q-3.495-13-7-26h-1v-4h-1v-3h-1v-3h-1q-1.005-5-2-10h-1c-0.67-3.333-2.33-5.667-3-9-0.33,0,.33-1,0-1v-4h-1v-2c-0.33,0-.67-1-1-1v-2c-0.33,0-.67-1-1-1v-3h-1c0-1.333-1-.667-1-2-0.33,0,.33-2,0-2-0.33-1.333-.67-2.667-1-4h-1c0-.667-1-1.333-1-2-0.67-.333-0.33-0.667-1-1,0-.667-1-0.333-1-1-0.47-.329.06-1.658-0.41-1.986-2.86-2.005-5.73-3.01-8.59-5.014-1,0-2-1-3-1v-1h-2v-1h-2v-1c-1.23.449,1.5,0.228-.22-0.072A47.95,47.95,0,0,1,1406,191c0-.333-1,0.333-1,0-1,0-1-1-2-1,0-.333-1,0.333-1,0-1,0-1-1-2-1,0-.333-1-0.667-1-1h-2v-1h-3v-1h-4c0-.333-1-0.667-1-1-4.67-.667-8.33-1.333-13-2-0.33-.667-0.67-1.333-1-2h-2v-1c-2.3-1.9-3.71-4.124-7-5V158c1.19-.652,1.43-1.626,2-2h2c0.33-.667.67-1.333,1-2h79v1c1.67,0.333,3.33.667,5,1v1h2c0.33,0.667.67,1.333,1,2,1.67,1.333,3.33,2.667,5,4,0.67,2,1.33,4,2,6h1q0.495,8,1,16h-1v11h-1v10h-1q-0.495,10.5-1,21h-1v11h-1v11h-1v10h-1v11h-1Q1457.505,277.5,1457,285Zm412-63c27.27-.588,31.98,20.02,25,44q-1.005,11.5-2,23c-1.86,6.334-2.16,15.659-4,22v8h-1v7h-1v8h-1v7h-1v7h-1v8h-1v7h-1v8h-1v7c-3.27,11.188-2.78,25.886-6,37q-0.495,7.5-1,15h-1v8c-3.23,11.113-2.76,25.891-6,37-0.33,3.333-.67,6.667-1,10h-1v2l-6,8h-2v1c-1.23.954-1.93,0.743-3,2-4.46.3-11.58,2.79-17,1v-1h-3l-9-6v-2c-0.67-.333-1.33-0.667-2-1-0.33-1.333-.67-2.667-1-4h-1v-3h-1c-1.44-4.544,1.13-17.026,2-20q2.505-22,5-44c2.63-8.958,2.41-21.082,5-30v-8h1v-7h1v-8h1v-7h1v-7h1v-8h1v-7h1v-8c3.88-13.328,3.16-30.7,7-44v-8c2.59-8.916,2.36-21.048,5-30v-6h1v-3h1v-3c0.67-.333,1.33-0.667,2-1v-2c0.67-.333,1.33-0.667,2-1l3-4h2v-1c2.04-1.158,2.23-.015,4-2h4v-1ZM19,226c15.418,0.114,24.214,5.566,28,17v6h1v7h1v8h1v7h1l1,15h1v7h1v8h1v7h1v8h1v7h1v8h1v7h1v8h1v7c4.57,15.844,3.476,36.135,8,52v8h1v7h1v8h1v7h1q0.5,7.5,1,15h1v7h1v8h1v7h1v15H77v2H76v3l-2,1v2l-3,2v1H69l-1,2H66v1H64v1c-5.658,2.454-14.157.273-20,0-1.6-2.53-3.706-2.19-6-4l-1-3-3-2v-2H33v-3H32v-3H31v-7c-2.619-8.964-2.423-21.079-5-30v-8c-1.855-6.386-2.154-15.609-4-22v-8H21v-7H20v-7H19v-8c-3.953-13.646-3.031-31.305-7-45q-0.5-7-1-14H10v-8H9v-7H8v-8H7L6,291H5v-7H4v-8H3v-7H2v-8H1q-0.5-8-1-16H1v-3H2l1-5,3-2v-2l3-1,2-3h2v-1l6-1v-1ZM884,404H844q-0.5-1.5-1-3l-2-1v-2h-1v-2h-1v-3h-1V378q1-18.5,2-37c8.257,1.5,17.218.893,23-3l4-5,3-2v-2h1v-2h1v-2h1v-2h1v-2h1q0.5-2,1-4l2-1q0.5-2,1-4h1v-2h1v-2h1v-2h1q0.5-1.5,1-3h1v80C883.019,385.192,883.911,399.445,884,404ZM685,350l3,29c-11.231-.325-24.738-1.925-27,7-1.8,1.741-2,4.394-2,8h1v3c1.381,2.719,4.141,4.669,7,6v1H647q-0.5-26.5-1-53C653.518,348.231,674.908,349.953,685,350Zm561,54h-44l3-36c4.54-1.689,12.85-1.05,19-1,3.83-3.307,13.49.76,19-1v-1c1.76-.637,2.61-0.446,4-1v26C1245.01,392.167,1245.9,400.054,1246,404Zm-164-37c0.27,11.724-.33,26.126-5,33l-3,2c-0.33.667-.67,1.333-1,2h-25c0.32-1.953,1-2,1-2V386h1c1.44-5.114-.49-11.979,1-16,5.76-.255,10.4-2.667,15-4Zm-638,2c3.06,0.5,5.657,2.152,8,3h4v1l7,1v1h3v1l10,2v1h1v8h1q0.5,8.5,1,17H447c-1.079-2.874-1.044-7.691-1-12-1.992-2.233-.032-6.478-1-10h-1V369Zm1005,2-3,33h-35c0-3.52.86-20.513,2-22ZM862,521c-9,0-19.62-.071-28-1l-9-6v-2h-1c-0.956-1.228-.741-1.932-2-3-0.363-4.859-1.517-7.616,0-12v-4h1c2.921-12.16,17.484-12.262,33-12v1h1C858.333,494.665,860.667,508.335,862,521Zm176-1q0.495-6,1-12h1V498h1v-9h1v-7h1c1.8-1.606,6.65-1,10-1h25v1h4v1h3c0.33,0.667.67,1.333,1,2,3.03,2,4.95,1.953,6,6,4,3.436,3.95,15.228,1,20-0.67.333-1.33,0.667-2,1v2h-1c-3.08,3.631-3.46,2.983-8,5v1c-6.14,0-12.28,1-18.41,1C1055.06,521,1045.6,521.084,1038,520ZM927,495c14.332,0,30.668-1,45-1,0.08,9.523-1.717,19.412-2,28-12.666,0-26.335-1-39-1C930,512.667,928,503.332,927,495Zm-437,4c2.053,12.068,3.857,25.9,4,39-5,.1-22.662,1.1-25-1-8.187-1.508-15.394-12.276-12-22v-4h1C460.821,499.279,475.03,498.754,490,499Zm183,0c17.8-.355,50.523-3.395,54,10,1.941,1.634,4.609,10.134,3,15-0.733,2.218-2.346,4.227-3,7l-4,3v1l-6,2v1H668Q670.5,518.5,673,499Zm-113,0h43a369.978,369.978,0,0,1-4,39H564v-1h-1c-0.721-8.893-1.128-18.1-3-27C559.8,509.073,560.279,502.439,560,499Zm633,3q-1.005,19-2,38c-6.13.146-14.34,1.507-17-1-6.62-1.613-6.87-6.5-11-10-0.55-7.32-1.72-13.475,2-19l3-2c1.88-1.9,1.77-3.185,5-4C1176.23,500.734,1186.67,501.888,1193,502Zm184,0h45c4.91,1.614,10.69,5.678,12,11,1.99,1.9.02,0.529,1,3,2.76,6.967-.7,11.557-2,17-1.67,1.333-3.33,2.667-5,4v1l-4,1v1h-55Q1373.005,521,1377,502Zm-115,1h45v1c-1.93,2.2-.96,5.81-2,9h-1v5c-2.02,6.328-4.58,14.3-5,22h-40Q1260.5,521.5,1262,503Zm351,106V571h156v-1c6.23-1.736,15.51.558,19,2h3c0.33,0.667.67,1.333,1,2h2v1l3,2v2h1c1.16,2.03,0,2.246,2,4,0.33,2.666.67,5.334,1,8l-3,10c-1.67,1.333-3.33,2.667-5,4v1h-2v1h-2v1h-4v1H1613ZM295,575v38H112c-2.492-.75-5.165-2.393-8-3l-3-4h-1v-2H99c-1.146-2-.173-2.443-2-4-0.085-4.812-.528-11.635,1-15h1v-2h1a8.533,8.533,0,0,0,2-4c3.65-.931,6.54-3.892,10-5l64,1H295Z"/>
  <path id="Заливка_цветом_10" data-name="Заливка цветом 10" class="cls-18" d="M1073,134c15.92-.174,19.8,2.533,26,12,0.67,0.333,1.33.667,2,1v3h1v3h1c1.32,4.206-.2,16.179-1,19-1.55,5.484.37,14.138-1,19q-1.995,47.495-4,95h-1v-2c-2.66-2.409-1.51-4.562-3-8h-1v-2h-1v-3h-1v-2h-1c-1.25-2.862-1.07-4.922-2-8h-1c-0.33-1.68.95-1.755,1-2,1.36-6.349-.42-14.916,1-20,1.53-5.5-.35-14.137,1-19V207q0.495-12.5,1-25h1V166c0.33-3,.67-6,1-9-2.62-9.558-8.15-19.836-19-21v-2ZM445,152v2c-13.052,1.39-21.368,16.457-17,32v10h1v11h1v10h1v11h1v11h1v10h1v11h1v11c0.056,0.256,1.292.323,1,2h-1q-1,6-2,12h-1v4h-1v3h-1v4h-1q-0.5,3.5-1,7h-1q-3-34.5-6-69h-1V223h-1V213h-1q-0.5-7.5-1-15h1v-5h1q-1-6-2-12h-1v-2h-1c-1.434-4.135,1.153-8.787,2-11v-3h1v-2l2-1v-2l2-1C427.906,152.866,432.878,152.01,445,152Zm1002,2,15,1v1l4,1c0.33,0.667.67,1.333,1,2h2v1l3,2c2.73,3.839,7.39,15.637,5,24h-1v11h-1v10h-1v11h-1v11h-1v10h-1v11h-1v10h-1v11h-1v11h-1q-1.005,16-2,32h-1v-2h-1q-1.005-5-2-10h-1v-3h-1v-4h-1v-3h-1v-3h-1V276h1V265h1V254h1V244h1V233h1V223h1V212h1V201h1V191h1v-9c0.33-1.667.67-3.334,1-5-2.25-10.011-8.07-19.8-19-21v-2ZM433,366l12,3q1.5,17.5,3,35H436Q434.5,385,433,366Zm638,38c0.68-2.6,1.57-3.251,3-5h1v-2c0.67-.333,1.33-0.667,2-1v-2h1v-3h1v-3h1q0.495-10.5,1-21c4.04,0.085,8.37,0,11-1v18h-1v7c-0.76,2.248-6.41,12.235-8,13h-12Zm385,0h-11q0.495-11,1-22h1c1.05-3.687-.01-8.322,1-11a34.113,34.113,0,0,0,11-3v9c-2.12,2.411.04,7.256-1,11h-1Q1456.505,396,1456,404Z"/>
  <path id="Заливка_цветом_8" data-name="Заливка цветом 8" class="cls-19" d="M959,201h3q-0.5,3-1,6h1q0.5,3,1,6l4,3v28c-2.191,7.78-.992,20.5-1,30v9c-1.793,6.367-1,16.975-1,25q-0.5,15.5-1,31l-7,2a26.158,26.158,0,0,1,2,9c-1.135.844-.146-0.127-1,1l-12,2v-1h-3v-1H932c-0.007-8.618-.939-20.065,1-27V176l3-1v1c2.481,2.295.736,2.223,2,5h1v2h1v2h1v3h1v2h1v3h1q0.5,2,1,4h1v3h1q0.5,2,1,4h1v3h1q1,3,2,6c1.139-1.139.4,0,1-2C955.288,209.53,958.331,204.138,959,201Zm54-26,3,1q-1.5,74.993-3,150c-1.13.844-.15-0.127-1,1-4.83.108-8.47,1.8-12,3h-4l-9,3V318c-1.49-1.7-1-5.807-1-9V286q-1-34.5-2-69l3-2c1.5-2.324,2.789-7.359,3-11h2q2.5,4.5,5,9h1c0.327-3.831,1.913-4.577,3-7v-3h1c0.33-1.333.67-2.667,1-4h1v-3C1006.91,189.538,1011.3,182.845,1013,175Zm-161,3c6.5-.046,12.133,1.527,17,3h6c3.583,1.094,8.863,2.189,13,3q-1,6.5-2,13l-36-6Q851,184.5,852,178Zm-84,16,3,1v1l3,1q0.5,1,1,2h2v1l3,1q0.5,1,1,2h2l2,3h2v1l3,1q0.5,1,1,2h2l2,3h2q0.5,1,1,2h2c3.515,2.008,6.434,3.912,7,9,2.284,2.568,1,22.529,1,28v72c0,10.888,1.668,22.685-7,25-3.131,3.091-11.928,2-18,2H735c-0.414-11.5-3.819-21.665-4-34,8.759-4.959,20.257-29.118,15-45h-1q-0.5-3-1-6h-1v-2h-1v-3l-2-1q-0.5-2-1-4l-4-3v-2l-4-3v-1h-2l-2-3h-2q-0.5-1-1-2l-6-2v-1h-2v-1l-7-1v-1c-2.913-.868-16.113-0.883-19,0-13.415,4.1-21.942,10.513-29,21l-2,1q-1,3-2,6h-1v2h-1q-0.5,3.5-1,7a29.572,29.572,0,0,0,0,19v4h1v3h1q1,3,2,6h1q0.5,2,1,4l3,2v2l3,2,3,4c5.941,4.254,12.717,7.1,20,10a44.8,44.8,0,0,0,2,13c0.91,3.137.168,6.813,1,9H602v-1h-5c-1.693-2.879-4.872-4.572-6-8V223h1q0.5-2,1-4l3-2v-1h2v-1h66v-1l110,1v-1c-1.288-.665-1.36-1.573-2-2h-2q-0.5-1-1-2h-2l-2-3h-2l-2-3c2.514-1.592,2.319-3.551,4-6h1A7.835,7.835,0,0,0,768,194Zm807,62c0.26,2.242.09,2.648,1,4h1v2c0.67,0.333,1.33.667,2,1v2c0.67,0.333,1.33.667,2,1v3l-3,1v1h-2v1h-2c-0.33.667-.67,1.333-1,2h-2c-0.33.667-.67,1.333-1,2h-2c-0.33.667-.67,1.333-1,2h-2c-0.33.667-.67,1.333-1,2h-2c-0.33.667-.67,1.333-1,2h-2c-0.33.667-.67,1.333-1,2h-2v1h-2c-0.33.667-.67,1.333-1,2l-3,1v-1c-2.49-1.617-2.34-3.517-4-6-0.67-.333-1.33-0.667-2-1v-2c-0.41-.609-1.34-0.774-2-2l3-1v-1h2c0.33-.667.67-1.333,1-2h2c0.33-.667.67-1.333,1-2h2c0.33-.667.67-1.333,1-2l4-1c0.33-.667.67-1.333,1-2h2c0.33-.667.67-1.333,1-2h2c0.33-.667.67-1.333,1-2h2c0.33-.667.67-1.333,1-2A19.97,19.97,0,0,1,1575,256Zm47,139c-4.85-.423-7.3-1.88-13-2-0.04-6.653,2.29-12.008,4-17,0.33-2.333.67-4.667,1-7h1v-4h1c1.06-3.1.02-6.9,2-9,1.73,1.7,9.92,3.434,13,4v1c-2.03,2.254-.91,4.774-2,8h-1v4C1625.79,379.545,1622.79,387.361,1622,395ZM580,364l-10,35-12-3q-0.5-1.5-1-3h1q0.5-3.5,1-7h1v-4h1l6-22h1Zm114,13c16.862,2.764,39.842,1,56,1,9.563,0,20.82-1.429,23,6,2.192,1.9.953,2.063,2,5,2.7,7.57-3.885,14.053-10,16H736c-23.337,0-51.985,2.138-72-2l-5-6c-0.314-4.241-1.728-8.171,1-11,1.278-4.919,5.22-4.844,8-8C673.109,378.1,691.625,379.126,694,377Zm318,4q-0.5,11.5-1,23H932v-6c1.135-.844.145,0.127,1-1,7.29-.069,19.566-4.317,21-10l14-3v1h1q0.5,3,1,6ZM253,436H1655v19h-41V609h-1q0.495,45.5,1,91v46c0,7.713.75,17.939-1,24q0.495,65.994,1,132h-30V455c-417.22-.092-839.812,0-1260,0V902H295V455H253V436Z"/>
  <path id="Заливка_цветом_7" data-name="Заливка цветом 7" class="cls-20" d="M536,220h-4l-16-39,9-8c2.01,0.574.865-.12,2,1,2.54,2.183,3.024,5.162,5,8l3,2v2h1q0.5,1.5,1,3l2,1v2l3,2c1.7,2.437,1.5,4.383,4,6q-0.5,1.5-1,3l-2,1q-0.5,2-1,4h-1v3h-1v2h-1v2h-1v2h-1Q536.5,218.5,536,220Zm45,0h-4q-0.5-1.5-1-3h-1v-2l-2-1q-1-3-2-6h-1v-4h-1q-0.5-1.5-1-3h-1q0.5-1.5,1-3c3.822-2.331,4.463-6.351,7-10l3-2v-2l2-1v-2l2-1v-2l2-1q1-2,2-4h2l2,3h2c1.756,1.279,2.544,3.588,5,5-2.081,4.96-4.927,10.318-7,15v3h-1q-0.5,2-1,4h-1v3h-1q-0.5,2-1,4h-1v3C582.744,215.8,581.571,215.49,581,220Zm1123,36c-0.49,4.251-2.46,5.124-4,8-0.33,1.333-.67,2.667-1,4h-1l-3,9h-1v3h-1v2h-1c-0.33,2-.67,4-1,6h-1q-3,14-6,28v9h-1v15c1.77,6.47,2.11,14.652,2,23-0.67-.333-1.33-0.667-2-1-1.16.9-.97,2.044,0,3h-3v-1l-7-1v-1h-4v-1h-4c-4.71-1.593-11.29-3.4-16-5h-4v-1l-12-2c-0.33,2.666-.67,5.334-1,8q-7.005-2-14-4c-1.67-2-3.33-4-5-6l-4-1v-1h-3c-2.85-1.094-13.73-5.175-18-4-2.13.587-5.07,1.749-8,2-0.64-1.225-1.64-1.439-2-2v-2h-1v-2c-0.67-.333-1.33-0.667-2-1v-2c-0.67-.333-1.33-0.667-2-1v-2c-0.67-.333-1.33-0.667-2-1v-2c-0.67-.333-1.33-0.667-2-1v-2c-0.67-.333-1.33-0.667-2-1v-2c-0.67-.333-1.33-0.667-2-1v-2c-0.67-.333-1.33-0.667-2-1v-2c-0.67-.333-1.33-0.667-2-1v-2c-0.67-.333-1.33-0.667-2-1v-2c-0.67-.333-1.33-0.667-2-1-0.33-1.333-.67-2.667-1-4-0.67-.333-1.33-0.667-2-1v-2c-0.67-.333-1.33-0.667-2-1v-2c-2.49-3.741-6.66-7.021-8-12q6.495-3.5,13-7c0.33-.667.67-1.333,1-2l4-1c0.33-.667.67-1.333,1-2h2v-1l3-1c0.33-.667.67-1.333,1-2h2c0.33-.667.67-1.333,1-2h2c0.33-.667.67-1.333,1-2h2c0.33-.667.67-1.333,1-2,3.08-2.088,6.71-3.19,9-6,2.01,0.574.87-.12,2,1,3.98,2.693,5.3,7.951,8,12,0.67,0.333,1.33.667,2,1v2c0.67,0.333,1.33.667,2,1,0.33,1,.67,2,1,3h1c0.33,1.333.67,2.667,1,4,0.67,0.333,1.33.667,2,1v2c0.67,0.333,1.33.667,2,1v2c0.67,0.333,1.33.667,2,1v2c0.67,0.333,1.33.667,2,1v2c0.67,0.333,1.33.667,2,1v2c0.67,0.333,1.33.667,2,1v2c0.67,0.333,1.33.667,2,1v2c0.67,0.333,1.33.667,2,1v2c0.67,0.333,1.33.667,2,1,0.33,1.333.67,2.667,1,4,0.67,0.333,1.33.667,2,1v2c0.67,0.333,1.33.667,2,1v2c0.67,0.333,1.33.667,2,1v2c0.67,0.333,1.33.667,2,1q2.505,4.5,5,9h1v-1c3.36-2.094,2.88-3.956,5-7l3-2v-2l3-2v-2c0.67-.333,1.33-0.667,2-1v-2c0.67-.333,1.33-0.667,2-1,0.33-1,.67-2,1-3l3-2v-2c0.67-.333,1.33-0.667,2-1v-2c0.67-.333,1.33-0.667,2-1,0.33-1,.67-2,1-3l3-2v-2c0.67-.333,1.33-0.667,2-1v-2l3-2v-2c0.67-.333,1.33-0.667,2-1v-2l3-2v-2l3-2v-2c0.67-.333,1.33-0.667,2-1v-2l3-2v-2l3-2v-2c0.67-.333,1.33-0.667,2-1v-2c0.67-.333,1.33-0.667,2-1C1692.9,259.891,1696.22,256.326,1704,256ZM485,455h71c1.011,6.144,1.351,15.2,3,21v10h1v9h1v6h-1q0.5,7.5,1,15h1q0.5,9.5,1,19h1v3h1v8h1v9h1v5h1c0.079,1.476-1.922,6.733-1,10h1q1,14.5,2,29l2-1v12c2.214,2.636-.134,8.015,1,12h1v10h1v10h1v9h1v10h1c1.432,5.046-.78,15.85,2,19a49.224,49.224,0,0,1,2-15v-8h1v-8h1v-8h1v-8h1v-8h1v-8c3.408-11.739,2.626-27.34,6-39l3-32h1v-8l2-1v-7h1v-8h1v-8h1v-8h1q-0.5-4.5-1-9c3.245-12.825,3.5-28.682,6-42h69c1.422,3.809,1.048,10.65,1,16-2.763,3.233-.563,8.057-2,13h-1v8c-3.223,11.043-2.752,25.751-6,37v8h-1v1h1v6h-1q-0.5,8.5-1,17h-1v2h-1v8h-1v8h-1v8h-1v8h-1v8h-1v8h-1q-0.5,11-1,22c-2.75,9.543-2.252,22.456-5,32v8h-1v8h-1v8a113.479,113.479,0,0,0-4,29,112.749,112.749,0,0,1-28-4h-7v-1h-7v-1h-7v-1h-7v-1h-7v-1a2.635,2.635,0,0,0-3,1H570q-0.5,1-1,2c-2.218.767-2.731-.823-4-1l-17,1v1H537c-7.045,1.964-15.917,2.027-25,2-0.844-1.135.127-.145-1-1a56.524,56.524,0,0,0-2-17v-9h-1V678h-1v-9h-1V659h-1V649h-1q-0.5-7-1-14a2.7,2.7,0,0,0,1-3h-1V622c-3.241-11.33-1.784-26.7-5-38V574h-1V564h-1v-3h-1V551h-1V541h-1a2.647,2.647,0,0,1,1-3q-0.5-7.5-1-15h-1V513h-1V503h-1v-6h-1V487h-1v-9h-1v-3h-1Q485.5,465,485,455Zm368,0h71a47.62,47.62,0,0,0,2,11v8h1v8h1v8h1q-0.5,4.5-1,9h1v8h1v8h1v5h1v4h1v8h1v7h1v4h-1v1h1v8h1v8h1v8h1v8c2.032,7,1.959,17,4,24v7h1v4h1v5h1v8c2.766,9.535,2.258,22.454,5,32,1.511,5.262-.994,14.635,2,18q1-13,2-26h1v-9h1V629h1q2.5-29,5-58c3.229-11.291,1.777-26.66,5-38V523h1v-3h1v-7h1V503h1q-0.5-5.5-1-11h1v-9h1V473c1.466-5.151,1.928-11.328,2-18h72a93.946,93.946,0,0,1-4,27v9h-1v10h-1v9h-1v18h-1v10h-1v5h-1v9h-1v9h-1v10h-1v10h-1v9h-1v10h-1v9h-1c0.33,1.333.67,2.667,1,4q-0.495,7-1,14h-1v10h-1v10h-1v9h-1v10h-1v7h-1v9h-1v10c-1.52,5.324-1.93,12.229-2,19l-16-1v-1H993v-1H982v-1H970v-1l-27-1v1h-9v1h-7v1h-7v1h-7v1h-7a85.894,85.894,0,0,1-21,3v-1h-1l-3-30h-1v-8h-1v-8h-1v-7h-1v-8h-1q-0.5-8-1-16c-4.482-15.386-1.547-31.516-6-47q-0.5-8-1-16h-1v-7h-1v-8h-1v-8h-1v-6h-1v-5h-1v-8h-1q-0.5-5-1-10h1v-6h-1v-8h-1v-8h-1v-7h-1v-8A103.4,103.4,0,0,1,853,455Z"/>
  <path id="Заливка_цветом_29" data-name="Заливка цветом 29" class="cls-21" d="M942,704q0.5,7,1,14c-8.157-.114-16.553-2.121-24,0h-8v1h-2v1l-10,3v4c-3.759,2.207-4.819,5.139-7,9h-1v2h-1v2h-1v2h-1v3h-1v2h-1v10s-0.675.179-1,2h-1v-1h-7v-1l-9-3c-0.945-1.8-1.385-1.574-2-4-2.762-.723-2.237-0.279-3-3-4.059-3.51-1.6-15.761-1-21l4-3v-1h2v-1c1.741-1.436,2.413-2.3,5-3v-3l12-1v2c8.228-.09,9.284,3.185,14,6v-9a8.445,8.445,0,0,1-2-3h1c2.173-1.884,7.8-.977,11-2C917.864,705.163,930.671,704.039,942,704Zm21,0,30,1v2h13a10.582,10.582,0,0,1,1,4c-0.94,1.041-1.85,9.064-2,11l-5-1v-1l-16-2v-2l-22,1Q962.5,710.5,963,704Zm-394,5v13l-6-1s-0.257,1.283-2,1v-1h-7s-0.083.838-2,1H539v1h-2v1h-4v1h-2v1l-5,1a98.623,98.623,0,0,1-1-16Zm20,0c17.357-.173,27.388,3.826,44,4v5h-1c-0.047,1.413.792-.4,1,1q-0.5,4-1,8a18.818,18.818,0,0,1-9-2v-1h-6v-1h-5v-1H589V709Zm458,6h12v2l4,1v1c3.77,1.754,4.78.03,6,5,2.76,0.723,2.24.279,3,3,4.21,3.487,1.42,14.159,0,18v4h-1c-1.14,1.139,0,.4-2,1-0.87,3.906-3.2,5.862-8,6v1h-3v2c-8.84.155-12.46-2.6-19-4-1.64-2.766-4.68-4.957-6-8-2.26-5.228-.97-15.765,0-21h2v-3h2c1-4.2,4.66-6.022,10-6v-2Zm226,0c8.51-.009,14.73,3.007,21,5h10v2h9c1.64,3.1,1.9,1.8,2,7-1.48,1.593-1.09,5.892-1,9-4.63-.511-5.57-2.972-10-4v-2l-14-2v-1h-3v-1h-6v-1l-10,1c0.25-4.81.7-4.832,0-9h2v-4Zm-82,1h8v1h35c1,5.376.19,8.162,0,14a10.606,10.606,0,0,1-4,1c-3.12-4.529-25.26-5.072-34-5v2h-5V716ZM493,733h11v2c7.2-.121,11.062,2.779,11,10-2.681,3.021-3.057,21.037-3,28-2.257.307-2.608,0.1-4,1v1h-2v1h-4v1c-6.733,2-11.685-2.055-16-3-1.775-3.046-4.063-3.825-5-8h-2v-4h-2q0.5-8.5,1-17c5.984-3.567,5.259-9.5,15-10v-2Zm184,0v3c4.01,0.236,7.087,1.562,8,5,1.139,1.139.4,0,1,2h2l3,9c1.041,3.572-.9,11.211-2,13l-2,1c-4.992,7.415-8.33,11.174-21,11v-1h-4v-1l-7-2-3-4h-1v-2l-2-1v-2h-1c-3.692-8.328,1.664-16.6,3-23l4-3v-1C661.04,732.932,666.878,732.98,677,733Zm710,2,15,1v1h2v1c8.02,4.514,12.22,11.221,12,24h-2v5h-2v3h-2c-1.28,4.919-5.22,4.844-8,8l-13,1v-1l-6-1v-2h-3c-2.11-3.522-4.66-3.33-5-9h-2c-0.33-3.666-.67-7.334-1-11h1c0.67-2.389.61-6.926,1-9,1.8-.945,1.57-1.385,4-2v-3h3c0.33-1,.67-2,1-3,1.67-.333,3.33-0.667,5-1v-2ZM576,775v-2h-3v-2h-3v-1c-1.654-1.4-2.476-3.457-3-6,4.551-.476,13.215-2.748,19-1v1h4v1c4.471,1.34,10.558-.284,14,1-0.823,1.876-1.481,2.616-2,5-2.705,1.481-5.9,4.011-9,5Zm632-4,27,1c0.84,1.135-.13.145,1,1v3l-6,1v2c-7.69.082-11.66-1.62-18-2C1210.56,774.535,1208.86,774.212,1208,771Zm405,32h4v2l7,1v2c4.07,0.72,6.56,2.513,7,7l3,1q0.495,6,1,12h-1v6c-0.67.333-1.33,0.667-2,1v3h-1c-1.7,3.14-2.14,5.024-6,6-2.36,2.76-6.76,3.075-12,3C1612.34,833.663,1611.76,816.36,1613,803Zm76,0h13c0.33,1,.67,2,1,3,5.62,0.83,10.39,3.124,11,9h2c0.33,1.667.67,3.333,1,5h1c1.52,4.878-1.29,13.272-2,17-1.8.945-1.57,1.385-4,2v3c-2.47,1.222-6.29,2.9-8,5h-12l-9-3c-1.21-2.128-2.25-2.177-3-5-2.76-.723-2.24-0.279-3-3-4.36-3.7-1.74-17.885,0-22l3-1v-3c3.24-1.794,3.95-3.7,9-4v-3Zm88,1h13v2c3.54,0.286,4.88,1.348,8,2l6,8v3h1c2.17,6.831-2.05,15.407-3,20-2.63,1.5-3.38,3.189-7,4-0.72,2.762-.28,2.237-3,3-3.07,2.976-18.27-.273-20-2-1.14-1.139-.4,0-1-2-4.92-1.278-4.84-5.22-8-8q-0.495-6.5-1-13h1c0.33-2,.67-4,1-6h2v-3c2.76-.723,2.24-0.279,3-3,3.51-.866,3.74-2.5,8-3v-2ZM295,809v41c-2.294.288-2.56,0.171-4,1v1h-4v1c-1.684.3-1.738-.942-2-1l-12-1c-2.242-3.366-5.73-3.248-7-8h-2v-4h-2c-1.5-13.238-1-21.01,8-27l1-2h3l1-2h3v-1C282,805.737,290.773,808.711,295,809Zm-188-1h13v2l6,1,4,5h1c1.878,2.782,6.163,12.8,4,19h-1q-0.5,3-1,6c-2.246,1.5-2.905,4.511-5,6h-2q-0.5,1-1,2h-2v1c-6.937,3.082-14.694-.615-21-1v-2c-2.706-.5-3.761-1.069-5-3H96v-3H94l-1-4H92c-2.13-6.16,2.119-15.744,3-20l8-7h4v-2Zm110,8c2.762,0.723,2.237.279,3,3,4,3.9,1.62,16.429,1,22-2.808,1.651-3.4,4.03-7,5-0.723,2.762-.279,2.237-3,3v1h-2v1c-2.446.959-14.057-.115-15-1-4.722-.987-7.385-3.894-10-7h-1v-2h-1c-0.954-1.231-.743-1.932-2-3q-0.5-5.5-1-11c0.934-2.955,2.53-4.739,3-9h2c1.583-7.4,6.237-5.766,10-10C204.442,807.645,215.021,808.126,217,816Z"/>
  <path id="Заливка_цветом_5" data-name="Заливка цветом 5" class="cls-22" d="M933,351a37.085,37.085,0,0,0-17,6h-2l-3,4-2,1v2h-1c-1.158,2.045-.021,2.227-2,4q-0.5,5.5-1,11l3,9,6,5q0.5,1,1,2c4.336,2.912,9.653,3.019,17,3v6h79V387h1c0.44-1.5.45-6.043-1-6v-1h2v-1l7-1v-1h4v-1h4v-1h4v-1h4v-1h4v-1l11-2v1c-1.89,2.17-.83,8.2-1,12a208.989,208.989,0,0,1-2,21h572v-1h10c9.18,0,27.39-1.632,33,2l3,4c2.18,2.2,4.09,3.4,5,7-0.92,1.021-1.85,10.083-2,12-2.25,1.473-2.89,4.576-5,6l-4,1v1c-3.08,1.2-17.48,0-24,0H270c-6.9,0-19.308,1.394-22-1-7-1.619-10.169-8.964-10-18h1v-3h1c1.878-3.468,1.65-5.843,6-7,4.613-5.255,31.547-3,42-3H454c8.031,0,18.626.78,25-1l405,1q0.5-50.495,1-101h-1v2c-1.954,1.8-.841,1.941-2,4h-1v2l-2,1v2h-1v2h-1c-0.717,1.3-.851,4.305-2,5h-2c0.031-7.44,2.184-16,4-22v-6h1v-6h1v-6h1v-5h1q1-9,2-18h1v-5h1v-5h1v-7h1v-6c3.29-10.77,4.744-24.512,7-36h-5a15.682,15.682,0,0,1-1-6c1.291-1.059,1.037-1.761,2-3h1v-2l4-3q0.5-1,1-2h2v-1h2v-1h3v-1h2v-1h3v-1c7.053-2.518,17.974-.413,25-3v4q-9,21.5-18,43l-3,10h-1v2h-1v1h1c1.21,4.848,5.638,8.393,8,12v2l2,1v6h-1q-0.5,2.5-1,5h-1q-0.5,2.5-1,5h-1v2h-1v2h-1v2h-1v3h-1v2h-1q-0.5,1.5-1,3h1c0.835,4.122,3.252,6.9,5,10v2l2,1q0.5,2,1,4h1v2h1v2h1v2h1v2h1v2h1q0.5,2,1,4h1v2l2,1v2h1q1,3,2,6h1v29Zm84-175c12.9,1.309,23.61,5.071,32,11,1.33,1.666,2.67,3.333,4,5h2l6,7c0.67,0.333,1.33.667,2,1v2h1v2h1v3h1v3h1v2h1v3h1v2h1v3h1v3h1c0.33,1.666.67,3.333,1,5h1v2h1v3h1v2h1c0.33,2,.67,4,1,6h1c0.33,1.666.67,3.333,1,5h1v2h1v3h1v2h1c0.33,2,.67,4,1,6h1v2h1v3h1v2h1v3h1v3h1v2h1v3h1v2h1v3h1v2h1c0.67,2,1.33,4,2,6h1v3h1v3h1v2h1v3h1v2h1c0.33,2,.67,4,1,6,2.26,5.2,5.55,9.718,6,17h-5v-2c-1.23-1.073-1.05-1.776-2-3h-1v-2c-1.33-1-2.67-2-4-3v-1h-2c-0.33-.667-0.67-1.333-1-2h-2v-1h-2v-1h-3v-1c-7.23-2.287-18.91,2.545-23,4l-24,5v1l-11,2c-5.5,1.871-10.6,3.769-18,4,0-4.369.31-6.406,2-9,0.67-.333,1.33-0.667,2-1,0.33-1.333.67-2.667,1-4,0.67-.333,1.33-0.667,2-1v-2c0.67-.333,1.33-0.667,2-1,0.33-1.333.67-2.667,1-4,0.67-.333,1.33-0.667,2-1v-2c0.67-.333,1.33-0.667,2-1v-2c0.67-.333,1.33-0.667,2-1,0.33-1.333.67-2.667,1-4,0.67-.333,1.33-0.667,2-1v-2c0.67-.333,1.33-0.667,2-1,0.33-1.333.67-2.667,1-4,0.67-.333,1.33-0.667,2-1v-2h1c0.93-1.369.67-1.765,1-4-2.56-2.273-1.54-3.743-3-7h-1v-2h-1v-2h-1v-2h-1v-3h-1a25.9,25.9,0,0,1-3-11c3.36-2.78,4.52-7.265,7-11,0.67-.333,1.33-0.667,2-1v-2c0.67-.333,1.33-0.667,2-1v-3c-2.23-2.066-1.65-4.159-3-7h-1v-3h-1v-2h-1v-3h-1v-2h-1c-0.33-1.667-.67-3.334-1-5h-1v-3h-1v-2h-1v-3h-1v-2h-1v-3h-1v-2h-1v-3C1020.64,187.655,1017.34,183.637,1017,176Zm749,249a8.3,8.3,0,0,1,2-4h1v-2c0.67-.333,1.33-0.667,2-1,0.33-1.667.67-3.334,1-5h1c1.61-5.072-1.02-20.566-2-24v-9h-1q-0.495-9-1-18c-3.89-13.52-2.14-31.465-6-45v-9h-1q-1.005-13-2-26h-1c-0.33-2.666-.67-5.334-1-8h-1v-2c-0.67-.333-1.33-0.667-2-1v-2c-0.67-.333-1.33-0.667-2-1-1.33-1.667-2.67-3.334-4-5l-6-2v-1h-3v-1h-12v1h-3v1h-2v1h-2c-0.67,1-1.33,2-2,3h-2c-3,2.39-10.22,16.237-8,24h1v9h1v9h1v9h1v9h1v9h1v9h1q1.5,15.5,3,31l-19-4v-1h-4v-1h-4l-9-3v-1h1c0.37-1.7-.94-1.731-1-2V350h-1V339h-1V326h1V315h1v-7h1c0.33-3.333.67-6.667,1-10h1v-4h1v-4h1v-3h1c0.33-2.333.67-4.667,1-7h1v-2h1v-3h1v-2h1v-3q4.005-7,8-14h2c0.95-3.544,2.86-3.853,5-6,1.33-1.667,2.67-3.334,4-5,6.73-4.751,21.49-8.466,33-5h5v1h3v1l4,1v1h2v1h3c0.33,0.667.67,1.333,1,2h2c0.67,1,1.33,2,2,3h2v1c1.33,1,2.67,2,4,3v2c1.33,1,2.67,2,4,3v2c0.67,0.333,1.33.667,2,1,0.33,1.333.67,2.667,1,4h1c0.33,1.333.67,2.667,1,4h1c0.67,3,1.33,6,2,9h1q0.495,6,1,12h1v10h1v9h1q0.495,9.5,1,19h1v10h1v9h1v9h1v10h1v9h1v10c3.13,11,1.89,26.017,5,37v10h1v9h1v10h1v9h1v9h1v10h1v9h1c1.04,3.681.01,8.329,1,11H1697v-1h1q-0.495-8-1-16c-3.43-11.876-1.6-28.106-5-40V433h-1V423h-1c-0.33-1-.67-2-1-3h6c2.21,2.035,4.79.922,8,2v1h4v1h4v1h4c4.53,1.517,10.54,3.5,15,5l8,1c2.6,0.867,7.32,3.389,12,2v-1h4v-1h2v-1h3c0.33-.667.67-1.333,1-2h2v-1A8.051,8.051,0,0,1,1766,425Zm87,72q-3,20.5-6,41-0.495,8-1,16h-1v7h-1v8h-1v8h-1v8c-3.94,13.668-3.79,29.6-4,47H1711q0.495,56.495,1,113l9,2v1h2v1l6,1v1l6,1v1h2v1h3v1h3v1h3v1h3v1h2v1l9,2v1l6,1v1h2v1h3v1h3v1h3v1c8.3,3.368,19.78,3.655,22,13,1.44,1.391,3.29,9.191,2,13h-1v3c-0.67.333-1.33,0.667-2,1v2c-1.33,1-2.67,2-4,3v1c-1.68,1.152-2.25.053-4,2-7.39.2-13.79,0.1-19-2v-1h-3v-1h-2v-1h-3v-1l-9-2v-1h-2v-1h-3v-1h-3v-1h-3v-1h-3v-1h-3v-1h-2v-1l-6-1v-1l-18-6c0.34,9.817.53,20.068-7,22-2.9,3.416-11.67,1.887-16,1l-6-7V782l-69,24V769c4.29-1.8,9.58-4.24,14-6l6-1v-1h2v-1h3v-1h3v-1h3v-1h3v-1h2v-1h3v-1h3v-1h3v-1h3v-1h2v-1l6-1v-1h3c3.08-1.228,6.4-3.165,10-4,0.02-39.459.02-73.743,0-112h-69V609h172c7.22-2.02,19.08-.994,28-1a83.453,83.453,0,0,1,3-23v-8h1v-8h1v-7h1v-8c2.7-9.3,2.33-21.725,5-31v-8h1v-8h1c1.34-4.655-.82-9.939,2-13,1.53,1.832,1.94.891,4,2v1h2v1C1840.06,500.6,1847.95,498.062,1853,497ZM295,613v23H215q0.5,56,1,112c12.168,4.545,25.4,8.95,37,14h3v1h3v1h3v1h3v1h3v1h2v1l9,2c4.928,1.981,10.1,4.73,16,6v34c-9.055.241-15.666-.451-22-3v-1h-3v-1h-2v-1h-3v-1h-3v-1h-3v-1h-3v-1h-2v-1l-9-2v-1l-6-1v-1h-2v-1l-6-1v-1c-5.32-2.124-10.052-2.912-15-5v13c-0.725,2.219-2.369,4.217-3,7a16.12,16.12,0,0,0-6,4c-8.358.322-16.285,0.293-18-6-4.96-4.533-.869-14.418-4-18v1l-6,1v1h-2v1h-3v1h-3v1h-3v1h-3v1h-2v1h-3v1h-3v1h-3v1h-3v1h-3v1h-2v1l-9,2v1h-3v1h-2v1l-6,1v1c-3.01,1.187-15.709,3.786-19,1-7.267-1.562-13.031-11.331-10-20v-4h1c1.751-5.987,8.439-8.79,14-11h3v-1h3c14.839-6.453,32.126-11.548,47-18l6-1v-1l6-1v-1h2v-1h3v-1h3c2.141-1.538,1-10.523,1-14V693h-1a1.445,1.445,0,0,1,1-2V636H59c0.23-14.866.274-29.583-3-41v-8H55v-8H54v-7H53v-8H52v-8H51v-8H50v-7H49v-8H48v-8H47v-8H46v-7H45c-0.9-3.134-.181-6.819-1-9h2c2.573,2.709,12.982,2.63,17,1v-1h3l1-2,3-1,3,27h1v8h1v8h1v7h1v8c2.035,7,1.969,17,4,24v7h1v8h1v8h1v8h1c2.421,2.17,21.764,1.085,27,1,2.193,1.906,9.105,1,13,1H295Zm544-70V520c7.19,0.1,17.511,1.048,23-1v2h1v8h1q0.5,7.5,1,15h-1C861.654,541.892,844.01,542.914,839,543ZM953,682h-3q-1-13-2-26l2,1c1.484-.953.974-4.6,1-7V543c-5.854-.1-13.739-0.6-18,1q-1.5-12.5-3-25h1c1.786,1.619,6.661,1,10,1,8.837,0.007,21.992,1.651,29-1v4c-1.936,2.291.007,6.463-1,10h-1v9h-1v10h-1v10h-1v9h-1v10h-1v9h-1v10h-1v10h-1v9h-1v10h-1v10h-1v9h-1v10h-1Q954,670,953,682Zm84-163c11.97,2.138,28.36,1.013,42,1v23h-28c-5.37,0-12.16-.418-16,1v-6C1036.88,535.9,1037.07,523.51,1037,519ZM472,561V538c7.19,0.1,17.511,1.048,23-1v4c1.573,1.76,2.061,16.61,2,21h-1C493.691,559.923,476.9,560.913,472,561Zm241-23v23H681c-5.375,0-12.158-.416-16,1V552c1.312-1.451,2.037-11.616,2-15h1c2.048,1.812,8.3,1,12,1h33Zm-150,0h36q-9,74.493-18,149h-3q-1-13-2-26h-1V651h-1V641h-1v-9h-1V622h-1V610h-1q0.5-24.5,1-49l-6,1Q564,550,563,538Zm617,2h11q-0.495,11-1,22h-1v3h-1v-1h-8V540Zm79,0h40q-2.505,12.5-5,25c-7.76-1.462-29.6-2.741-37,0v-4C1257.92,559.963,1259,542.7,1259,540Zm109,0h52v24h-38c-6.18,0-14.42-.683-19,1v-4C1364.63,559.23,1367.65,543.721,1368,540ZM1022,671c10.94,4.488,23.42,8.3,34,13h3c2.33,1.666,4.67,3.333,7,5v2c0.67,0.333,1.33.667,2,1q0.495,6.5,1,13h-1v3c-0.67.333-1.33,0.667-2,1v2h-1c-0.67,1-1.33,2-2,3h-2v1h-2c-0.33.667-.67,1.333-1,2h-11v-1c-1.67-.333-3.33-0.667-5-1v-1h-2v-1h-3v-1h-3v-1h-3v-1h-3v-1h-2v-1h-3v-1c-1.76-.755-4.53-0.586-5,0v-5c1.96-2.27.01-6.468,1-10C1020.65,686.133,1020.9,677.185,1022,671Zm-139,9q1.5,15.5,3,31l10-1v2c-4.656.435-6.2,2.454-11,3v2l-10,1c-2.105-3.042-1.04-.542-4-2v-1h-2q-0.5-1-1-2h-2c-1.15-.9-2.326-4.611-4-6-0.351-4.607-1.335-6.108,0-10v-4h1c1.575-6.018,8.565-8.771,14-11h3v-1Zm505,58v-2l-58-20c-0.09-7.288,2.24-13.519,4-19v-5h1c1.15-3.485.81-6.947,2-10,14.52,6.01,30.79,10.817,45,17l6,1v1h3v1h3v1h3v1h2v1h3c0.33,0.667.67,1.333,1,2h2c0.33,1,.67,2,1,3,0.67,0.333,1.33.667,2,1,1.17,1.8.03,2.232,2,4v11h-1v2h-1c-1.87,3.313-2.88,5.975-7,7C1399.15,736.853,1391.45,737.721,1388,738Zm-122-52q-2.505,13-5,26c1.13,0.844.15-.127,1,1l12,2v5a21.508,21.508,0,0,0-10,2v1h-3v1h-3v1h-3v1h-3v1h-2v1l-6,1c-3.49,1.393-6.52,3.419-11,4a12.638,12.638,0,0,1-1-5c1.58-1.705,1.1-6.727,1-10l14,1v-3h1V701h1c0.97-3.412.09-7.574,1-10Q1257.995,688.5,1266,686ZM677,734v2l-11-1v-2a21.664,21.664,0,0,1-8-2v-1h-3v-1h-3v-1h-3v-1h-3c-4.743-1.9-8.473-4.531-15-5a29.362,29.362,0,0,1,1-7l13,1q1.5-12.5,3-25h1v1l6,1v1h2v1h3v1h3v1h3v1h3v1h2v1h3c5.729,2.322,12.412,4.444,14,11,5,4.753.094,13.436-1,18C683.557,730.978,682.2,733.438,677,734ZM512,696q0.5,8.5,1,17h13c1.248,3.334,1.047,9.175,1,14l-10,2v1h-2v1l-9,2v1h-2v1H493c-1.631-2.413-.785-0.628-3-2v-1h-2l-1-2c-3.85-3.861-5.032-8.02-5-16q2.5-4.5,5-9h2l1-2c2.049-1.271,5.568-1.034,8-2C502.363,699.267,506.25,696.579,512,696Zm439,7,13,1a67.916,67.916,0,0,1-1,13c-4.553-.81-8.931-3.645-10-8h-1Q951.5,706,951,703Zm-359,5c-0.173,3.086-1.478,12.436-3,14-1.554,1.828-1.986.861-4,2v1h-2l-2,3h-3c-1.421-2.109-3.484-2.887-5-5h-1V710c-1.139-1.139-.4,0-1-2h9v-1Zm912,37-6-1v-1l-39-2,3-9h1v-3h1l3-8q14.505,6,29,12v1h2q4.005,2,8,4v3C1504.64,742.165,1504.47,742.825,1504,745Zm26-1,43,4c-0.33,2.666-.67,5.334-1,8-9.69-.217-16.03,2.624-23,5h-4q-8.505,2.5-17,5v-4C1529.45,760.386,1530.03,747.431,1530,744Z"/>
  <path id="Заливка_цветом_4" data-name="Заливка цветом 4" class="cls-23" d="M1033,84h-3c-0.3-25.554-20.02-37.735-40-44-3.332-1.045-25.547-2.29-30-1v1h-6v1h-3v1h-4c-15.66,6.219-32.135,20.032-32,42h-3c-0.067-6.531-.39-15.07,1-20q0.5-10,1-20h1q0.5-3,1-6h1V36h1q0.5-2.5,1-5l2-1q0.5-2,1-4l3-2V22l5-4,5-6h2l1-2h2l1-2h2V7l6-2V4l6-1V2h4c9.832-3.184,22.031-2.419,31,1h3V4h2V5h3V6h2V7h2c0.33,0.667.67,1.333,1,2h2c0.33,0.667.67,1.333,1,2h2c0.67,1,1.33,2,2,3h2c1.33,1.666,2.67,3.334,4,5,0.67,0.333,1.33.667,2,1v2l3,2v2c0.67,0.333,1.33.667,2,1,0.33,1,.67,2,1,3h1l6,16q0.495,9.5,1,19C1033.29,69.666,1033.05,77.75,1033,84Zm704,136c0.13-5.464,1.71-7.151,3-11q0.495-6,1-12h1q-1.005-12.5-2-25c8.35-3.468,12.02-9.008,12-21-0.01-4.167-.02-8.947-2-11v-2h-1c-1.67-2-3.33-4-5-6h-2c-2.04-2.1-5.74-2.078-10-2v-2l-3-2v-1h-2c-0.33-.667-0.67-1.333-1-2h-2v-1l-6-2v-1h-4v-1h-5v-1h-16l-28,1a80.346,80.346,0,0,1-16,3c-0.13-20.422,14.57-39.153,27-47l4-1V72l4-1V70h3V69h2V68h4V67h4V66h22v1h5v1l6,1v1h2v1l5,1c0.33,0.667.67,1.333,1,2l4,1c0.67,1,1.33,2,2,3h2l6,7c1.33,1,2.67,2,4,3v2c0.67,0.333,1.33.667,2,1v2c0.67,0.333,1.33.667,2,1,9.32,14.81,8,36.936,8,61,0,9.616.29,18.978-2,26v4h-1v3h-1v2h-1v3h-1v2h-1v2c-0.67.333-1.33,0.667-2,1-0.33,1.333-.67,2.667-1,4l-3,2v2c-0.67.333-1.33,0.667-2,1v2c-1.67,1.333-3.33,2.667-5,4-0.33.667-.67,1.333-1,2h-2c-0.67,1-1.33,2-2,3h-2c-0.33.667-.67,1.333-1,2h-3Z"/>
  <path id="Заливка_цветом_3" data-name="Заливка цветом 3" class="cls-24" d="M619,76h-2c-5.136-26.995-27.523-40.436-57-43-5.855,9.617-22.011,17.151-33,22h-3c-5.213,2.305-17.553,7.505-19,13a34.636,34.636,0,0,1-7,1V68l3-20,7-16,2-1V29l4-3V24l2-1,3-4h2l2-3h2l1-2h2l1-2h2V11l4-1V9l6-1V7h4c10.131-3.284,22.862-2.483,32,1h3V9h2v1h3v1h2v1h2l1,2h2l1,2h2l4,5C613.751,31.778,619.211,50.079,619,76Z"/>
  <path id="Заливка_цветом_2" data-name="Заливка цветом 2" class="cls-25" d="M527,173h-2V157c-1.217-.673-1.38-1.581-2-2h-2q-0.5-1-1-2h-2q0.5-1,1-2l-7-6a70.881,70.881,0,0,1-13-38,11.357,11.357,0,0,1-8-6c-1.7-1.658-3.658-19.405-2-24h1q0.5-2,1-4l4-3V69a38.931,38.931,0,0,1,8-3c1.34-4.755,4.2-4.852,8-7V58h2V57h2V56h2V55l5-1V53l6-1V51h2V50h3V49l4-1V47l4-1V45l3-1,1-2h2l2-3h2l1-2,5-4,1-2h5v1h8v1h5v1h4v1l9,2v1l6,2v1h2l1,2h2l2,3h2v1l4,3v2l3,2v2l2,1v2h1q0.5,2,1,4h1q1,4.5,2,9h1V96c0,11.822-.4,24.7-4,33h-1v2h-1q-0.5,2.5-1,5l-2,1v2l-2,1v2l-3,2v2c-1.549,2.171-7.33,4.059-5,7l-4,1-2,3-8,4v13h-1v2l-2,1v2l-2,1v2l-3,2v2l-2,1v2l-3,2v2l-2,1q-0.5,1.5-1,3h-1q-0.5,2.5-1,5h-1c-1.52-2.585-8.683-7.631-14-6v1h-3v1h-2c-0.975.527-.537,2.744-3,2v-1c-2.072-1.718-2.426-3.673-4-6l-2-1v-2l-2-1v-2l-3-2v-2l-2-1v-2l-2-1q-0.5-1.5-1-3h-1Q527.5,174.5,527,173Zm505-67a58.415,58.415,0,0,1-9,27c0.33,0.667.67,1.333,1,2-0.67.333-1.33,0.667-2,1-0.33,1-.67,2-1,3-1.67,1.333-3.33,2.667-5,4-0.33,1-.67,2-1,3h-2c-1.33,1.666-2.67,3.333-4,5l-3,1v17c-2.05,1.752-2.42,3.664-4,6-0.67.333-1.33,0.667-2,1v2l-2,1v2l-3,2v2l-2,1v2l-3,2v2l-2,1c-1.819,2.509,1.075,1.82-3,3v-2c-2.73-.615-7.817-3.755-11-3-3.258.773-5.855,3.172-9,4v2h-2v-2c-2.684-1.786-3.171-4.3-5-7l-2-1v-2l-3-2v-2l-2-1v-2l-2-1v-2l-3-2v-2h-1c-1.727-4.545,1.8-11.8-1-15-1.881-2.119-4.669-2.379-7-4l-2-3h-2q-0.5-1-1-2c-3.575-3.379-8.585-6.59-10-12h-2c1.348-4.379-.166-3.527-2-7v-2h-1v-2h-1v-3h-1c-1.528-3.862-1.838-9.1-2-14-5.586-1.013-10.4-4.993-11-11-1.616-1.7-1.6-19.285,0-21,1.371-6.761,6.66-9.257,12-12v8h1c0.228-2.5.916-6.223,2-8l2-1q0.5-2,1-4l5-4,5-6h2l1-2h2l1-2,4-1V42h3V41h2V40h4V39h3V38l18-1V36c2.526-.614,3.62.785,5,1h12v1h5v1h4v1h3v1h3v1l6,2v1l4,1c0.67,1,1.33,2,2,3h2c1.67,2,3.33,4,5,6,0.67,0.333,1.33.667,2,1v2c0.67,0.333,1.33.667,2,1v2c0.67,0.333,1.33.667,2,1v2h1v2h1c0.33,2,.67,4,1,6h1V64h1c2.39,3.593,6.63,3.874,8,9,1.78,1.724,3.53,17.356,2,22-0.73,2.219-2.35,4.223-3,7C1036.37,103.505,1035.62,105.189,1032,106Zm361,2a62.765,62.765,0,0,1-7,30h-1c-0.33,1.333-.67,2.667-1,4-0.67.333-1.33,0.667-2,1v2h-1c-1.92,2.318-4.05,3.71-5,7l-3,1c0.33,0.667.67,1.333,1,2-0.74.62-6.73,3.509-7,4v16l-3,1c-0.33.667-.67,1.333-1,2h-2c-0.67,1-1.33,2-2,3h-2c-0.67,1-1.33,2-2,3h-2c-0.67,1-1.33,2-2,3h-2c-0.33.667-.67,1.333-1,2h-2c-0.33.667-.67,1.333-1,2l-3,1c-0.67,1-1.33,2-2,3h-2c-0.67,1-1.33,2-2,3h-2c-0.67,1-1.33,2-2,3h-2c-0.33.667-.67,1.333-1,2h-2v1l-3,1c-2.29-4.2-5.23-6.083-12-6q-1.995-7-4-14h-1v-2h-1c-2.02-5.649,2.57-16.041-1-20-1.84-2.133-4.56-2.39-7-4-0.33-.667-0.67-1.333-1-2h-2c-0.33-.667-0.67-1.333-1-2h-2c0.33-.667.67-1.333,1-2l-6-5v-2l-3-2v-2c-0.67-.333-1.33-0.667-2-1-11.09-17.41-8.1-50.639-8-79l3-2V59l6-2V56h4V55h4V54l9-3V50l4-1c0.33-.667.67-1.333,1-2h2c0.33-.667.67-1.333,1-2h2V44c1.37-.927,1.76-0.681,4-1,2.36,4.8,3.94,4.276,8,7,0.33,0.667.67,1.333,1,2h2v1l4,1c0.33,0.667.67,1.334,1,2l4,1v1l4,1v1h2v1h2v1h2v1h2v1l4,1c0.33,0.667.67,1.333,1,2l4,1c0.33,0.666.67,1.333,1,2h2c3.32,1.9,1.47,2.6,7,3V72h2V71h13v1l3,1v1c2.57,1.781,1.91-1.082,3,3,5.18,4.3,3.65,23.146,1,29Zm341,20c5.57-.07,7.95,1.149,12,2q3.495,4,7,8c1.17,18.081,3.39,29.633-11,36,1.55,4.044-.4,10.832,1,16,2.04,7.518-.48,19.62-3,26h1c0.67-1,1.33-2,2-3h2c0.33-.667.67-1.333,1-2,1.67-1.333,3.33-2.667,5-4v-1h3v1h-1v1h1v4h1v4h1q3,15,6,30h-1c-2.14-3.3-4.97-2.442-9-4v-1c-7.12-2.734-21.12-2.493-28,0h-3v1h-3c-0.33.667-.67,1.333-1,2h-2v1c-1.77,1.438-2.41,2.265-5,3-0.68,2.927-1.11,3.274-4,4-0.27-9.521-4.96-16.128-6-25-28.17-5.051-43.38-22.32-51-48V119c19.7-3.847,57.66-8.329,75,1h2v1C1729.65,123.07,1732.79,123.45,1734,128ZM250,123c1.322,7.113,1,17.34,1,26,0,8.893,1.059,20.809-1,28v7c-7.746,25.288-22.96,42.059-51,47l-3,14h-1q-0.5,5-1,10a10.6,10.6,0,0,1-4,1c-3.823-6.764-18.714-13.936-29-11h-7v1l-7,1v1l-5,1v1l-6,1v-1h1q1-5.5,2-11h1l6-29c3.442,0.891,5.709,3.842,8,6q0.5,1,1,2h2c0.637,0.435.775,1.319,2,2v-3c-5.737-5.742-2.22-29.567-2-39l-8-5v-2l-2-1c-0.761-1.464-2.045-24.1-1-27h1q0.5-2,1-4l4-3v-1l4-1v-1c3.268-1.208,6.532.579,9-1l5-6h2q0.5-1,1-2h2v-1h2v-1h3v-1l10-1v-1h34v1l18,1A42.189,42.189,0,0,0,250,123Zm620,11c7.437-.237,13.554.18,18,3q0.5,1,1,2h2v1l3,2v2l2,1v2h1v3h1v10c-0.028,9.975-2.369,24.033-11,25-2.771-2.376-6.8-.74-11-2v-1h-6v-1h-5v-1h-6v-1c-4.011-1.229-5.471.374-7-1h-1c-0.922-1.147-2.839-12.095-2-15h1q0.5-6,1-12h1v-3l2-1v-2l2-1,5-6h2v-1h2v-1l5-1v-1ZM394,168c9.581-.311,13.253,1.622,18,6,1.308,1.206,2.552,2.56,4,1v3c2.25,1.941.855,2.137,2,5h1v3h1v9h-1v5h-1l-1,4h-1q-0.5,3-1,6h-1v2l-2,1v2l-4,3v1h-2l-1,2-5,1v1h-5v1c1.719,1.127,1.355.633,2,3-2.972,1.656-10.084,8.475-11,12h-3l-6-7h-2l-9-10h-2l-6-7h-1v-2l13-12v-7h1v-3h1q0.5-3.5,1-7h1v-2h1q0.5-3.5,1-7h1v-3h1q1-5,2-10h1v-4h1c2.228-5.94,1.354-12.46,6-16v-1h8c2.366,4.073,3.073,3.755,3,11h-1v4h-1v3Zm420,0a8.529,8.529,0,0,0,2,4h1v2h1v2h1v3h1v13h-1v3h-1v2l-2,1v2l-2,1v2l-3,2v2l-2,1c-3.23,3.411-6.069,7.313-12,8-1.722-2.07-3.672-2.425-6-4q-0.5-1-1-2h-2q-0.5-1-1-2h-2l-2-3h-2q-0.5-1-1-2h-2q-0.5-1-1-2h-2q-0.5-1-1-2h-2v-1a8.089,8.089,0,0,0-4-2c-0.076-6.779,1.363-12.844,4-17l2-1v-2l3-2v-2l6-5q0.5-1,1-2c1.686-1.155,2.256-.034,4-2,5.592-.346,12.488-2.23,18,0v1l4,1v1A8.418,8.418,0,0,0,814,168Zm726,56h12c11.64,3.8,22.82,18.583,23,34l-9,5c-0.33.667-.67,1.333-1,2h-2c-0.33.667-.67,1.333-1,2h-2c-0.33.667-.67,1.333-1,2h-2c-0.33.667-.67,1.333-1,2l-4,1c-0.33.667-.67,1.333-1,2h-2c-0.33.667-.67,1.333-1,2h-2v1l-3,1c-1.68-2.528-4.88-2.955-7-5l-3-4c-0.67-.333-1.33-0.667-2-1v-2c-0.67-.333-1.33-0.667-2-1v-2c-0.67-.333-1.33-0.667-2-1-0.67-2-1.33-4-2-6h-1v-2h-1V240c3.04-2.644,3.63-8.589,7-11h2c0.33-.667.67-1.333,1-2h2v-1c1.67-.333,3.33-0.667,5-1v-1ZM1113,326v37h-14c-0.33.667-.67,1.333-1,2h-2v1h-2v1h-4v1h-8c-1.39.235,0.36,0.621-1,1-5.45,1.516-10.94-1.269-15-2v-2c-5.12-1.049-6.74-4.061-9-8h-1c-0.33-1.333-.67-2.667-1-4h-1v-3h-1c-1.86-5.9,2.1-16.3,4-19,1.67-1.333,3.33-2.667,5-4,0.33-.667.67-1.333,1-2,4.7-3.13,22.54-5.711,30-3v1l5,1c0.33,0.667.67,1.333,1,2h14Zm472,19c12.83-.42,32.87,3.743,34,14-2.03,2.254-.91,4.774-2,8h-1v4c-2.2,6.488-5.2,14.286-6,22h-1v-1c-7.94,3.131-13.93,1.408-21-1h-4v-1h-3v-1h-2v-1h-2c-0.33-.667-0.67-1.333-1-2-1.67-1.333-3.33-2.667-5-4v-2h-1c-1.16-2.045-.02-2.227-2-4-0.33-3.666-.67-7.334-1-11h1v-5h1c0.33-1.333.67-2.667,1-4h1v-2l3-2c0.67-1,1.33-2,2-3h2c0.33-.667.67-1.333,1-2l6-1v-1ZM313,395v2h-2l-7-39c2.01,0.574.865-.12,2,1l12-2,1-2,7-5,8-1c13.636-4.081,24.229-1.04,30,9,1.965,3.418,6.267,9.772,4,17h-1v4h-1l-1,4-2,1v2l-8,6h-2v1l-10,1v1H329v-1h-3v-1Zm621-46c5.383-.033,8.694,1.15,13,2v1h1c0.408,13.37,7.55,22.82,8,37l-4,3v1h-2q-0.5,1-1,2l-10,2v1h-3v1c-2.4.694-3.875-1.153-5-1v1c-14.928,2.574-29.672-13.63-25-28v-4h1q0.5-2,1-4l2-1,5-6,4-1v-1C923.8,351.888,930.742,352.572,934,349ZM583,362h11v1h3v1l7,1v1l6,2v1h2l2,3,2,1q1,3,2,6h1v2h1c1.931,5.45-1.348,17.6-3,20h-1c-3.272,3.9-5.116,3-12,3H574c-2.11-3.522-4.662-3.33-5-9l8-24q0.5-3.5,1-7h1v-1h4v-1Zm752,36-13,3c-0.33,1-.67,2-1,3h-45c-0.33-1-.67-2-1-3-4.49-3.886-3.48-14.953-1-20,0.33-1.333.67-2.667,1-4,0.67-.333,1.33-0.667,2-1,1.67-2,3.33-4,5-6l4-1v-1h3v-1l7-1v-1l13-1v1h3v1l13-4v1h1q1.005,5,2,10h1v3h1c0.33,2.333.67,4.667,1,7h1v4C1333.42,390.958,1334.79,392.039,1335,398ZM400,762c-16.154.132-28.78-3.823-45-4-0.1-3.761-.9-4.59-2-7h2c2.244-2.016,4.761-.932,8-2v-1h5v-1h4v-1h4v-1h4v-1h5c3.62-1.159,7.122-2.714,12-3v1C395.192,744.174,399.615,757.2,400,762Z"/>
  <path id="Заливка_цветом_1" data-name="Заливка цветом 1" class="cls-26" d="M1386,107c0.33-2,.67-4,1-6h1V82h-1c-0.33-1.333-.67-2.667-1-4-1.33-1-2.67-2-4-3V74c-1.68-1.159-2.29.02-4-2h-9v1c-3.22,1.205-4.23,1.711-8,2-2.11-3.108-5.63-4.094-9-6V68h-2V67h-2V66h-2c-0.33-.667-0.67-1.333-1-2h-2V63h-2V62h-2V61h-2V60h-2V59h-2V58h-2V57l-4-1c-0.33-.666-0.67-1.333-1-2l-6-2c-0.67-1-1.33-2-2-3h-2V48l-3-2V45c-0.78-1.18.09-.1-1-1-2.77,4.436-14.42,10-20,12l-10,2c-3.04,1.352-5.22,4.367-8,6V57h1V52q1.995-5.5,4-11h1c0.67-2,1.33-4,2-6,0.67-.333,1.33-0.667,2-1V32l3-2V28l6-5c0.67-1,1.33-2,2-3h2c0.67-1,1.33-2,2-3l4-1c0.33-.667.67-1.333,1-2h2V13h2V12h3V11h2V10h3V9h4c4.18-1.339,13.5-3.851,20-2V8h7V9h3v1h4v1l4,1v1h3c0.33,0.667.67,1.333,1,2l4,1c0.33,0.667.67,1.333,1,2h2l3,4h2l3,4h1v2c1.33,1,2.67,2,4,3v2c0.67,0.333,1.33.667,2,1,0.33,1,.67,2,1,3h1l6,16v6h1v51h-1C1390.6,108.345,1388.54,107.524,1386,107ZM250,124a87.756,87.756,0,0,1-17-3l-27-1H191v1h-6v1h-3v1c-2.685,1.055-5.738.6-8,2q-0.5,1-1,2h-2l-6,7h-8v1h-2q-0.5,1-1,2h-2q-0.5,1-1,2h-1v2l-2,1v3c-0.914.991-2.027,18.255-1,21h1v2h1v2h1q0.5,1.5,1,3c3.16,0.763,3.65,2.227,7,3q-0.5,15.5-1,31h1q0.5,4.5,1,9c0.8,2.23,2.377,4.192,3,7a20.112,20.112,0,0,1-9-5q-0.5-1-1-2h-2v-1l-3-2v-2l-5-4v-2l-2-1-7-16v-5c-2.112-7.106-2-16.51-2-26q0.5-20,1-40h1v-4h1v-3h1v-3h1v-2h1v-3l2-1q0.5-2,1-4l2-1V94l3-2V90l6-5,1-2h2l2-3h2l1-2,4-1V76l6-2V73h3V72c6.17-2.193,26.838-3.411,34-1v1h4v1h3v1l6,2v1l4,1C235.124,85.692,250.04,104.249,250,124Z"/>
</svg>
